<?xml version="1.0" encoding="UTF-8" standalone="no"?>
<svg
   xmlns:dc="http://purl.org/dc/elements/1.1/"
   xmlns:cc="http://creativecommons.org/ns#"
   xmlns:rdf="http://www.w3.org/1999/02/22-rdf-syntax-ns#"
   xmlns:svg="http://www.w3.org/2000/svg"
   xmlns="http://www.w3.org/2000/svg"
   xmlns:sodipodi="http://sodipodi.sourceforge.net/DTD/sodipodi-0.dtd"
   xmlns:inkscape="http://www.inkscape.org/namespaces/inkscape"
   width="653"
   height="785"
   viewBox="0 0 653 785"
   fill="none"
   version="1.1"
   id="svg131"
   sodipodi:docname="Frame.svg">
  <metadata
     id="metadata135">
    <rdf:RDF>
      <cc:Work
         rdf:about="">
        <dc:format>image/svg+xml</dc:format>
        <dc:type
           rdf:resource="http://purl.org/dc/dcmitype/StillImage" />
      </cc:Work>
    </rdf:RDF>
  </metadata>
  <sodipodi:namedview
     pagecolor="#ffffff"
     bordercolor="#666666"
     borderopacity="1"
     objecttolerance="10"
     gridtolerance="10"
     guidetolerance="10"
     inkscape:pageopacity="0"
     inkscape:pageshadow="2"
     inkscape:window-width="640"
     inkscape:window-height="480"
     id="namedview133" />
  <g
     clip-path="url(#clip0_149:51)"
     id="g124">
    <path
       d="M385.18 743.977H78.1841V785H385.18V743.977Z"
       fill="#090909"
       id="path2" />
    <path
       d="M439.217 480.622C447.491 480.791 452.895 472.182 449.18 464.922L391.935 349.451C390.753 346.582 389.402 343.712 387.713 341.011C375.893 320.753 354.447 306.572 329.455 305.221L167.345 296.105H166.162H165.825C165.656 296.105 165.487 296.105 165.318 296.105L138.469 296.612C91.5242 297.456 49.3081 327.843 36.3055 372.917C35.7989 374.774 35.2923 376.631 34.9545 378.488L1.35046 492.608C-1.01364 500.374 4.72776 508.308 12.8333 508.815L93.5506 512.867L67.5454 728.446C66.5323 736.887 73.118 744.315 81.5612 744.315H387.375C394.299 744.315 399.871 738.575 399.702 731.822L399.534 479.61L439.217 480.622Z"
       fill="#708CF5"
       id="path4" />
    <path
       d="M387.544 745.159H81.7302C77.5086 745.159 73.2869 743.302 70.4163 740.095C67.5455 736.887 66.1946 732.667 66.7012 728.277L92.5375 513.542L12.6645 509.49C8.44289 509.321 4.72786 507.296 2.36376 503.919C-0.000347912 500.543 -0.675807 496.323 0.506246 492.271L34.1103 378.319C34.4481 376.462 34.9547 374.605 35.4612 372.748C48.295 328.349 90.5112 296.612 138.469 295.768L165.487 295.261C165.656 295.261 165.656 295.261 165.825 295.261H166.163H167.345C167.513 295.261 167.682 295.261 167.682 295.43L329.455 304.546C353.94 305.897 376.061 319.402 388.389 340.673C389.908 343.374 391.428 346.244 392.61 349.283L449.855 464.585C451.713 468.299 451.544 472.688 449.18 476.064C446.985 479.61 443.101 481.635 439.048 481.467L400.547 480.454L400.716 731.823C400.716 735.368 399.365 738.744 396.832 741.276C394.468 743.809 391.09 745.159 387.544 745.159ZM165.994 296.949H165.825C165.656 296.949 165.656 296.949 165.487 296.949L138.638 297.456C91.5243 298.3 49.8148 329.531 37.3188 373.255C36.8122 375.112 36.3056 376.969 35.9678 378.657L2.19489 492.777C1.18171 496.323 1.85716 499.868 3.88354 502.906C5.90992 505.945 9.28721 507.633 12.8334 507.802L93.5507 511.854C93.7196 511.854 94.0573 512.023 94.2262 512.191C94.395 512.36 94.395 512.529 94.395 512.867L68.3899 728.615C67.8833 732.329 69.0653 736.212 71.5983 739.082C74.1313 741.952 77.8463 743.64 81.5613 743.64H387.375C390.415 743.64 393.454 742.458 395.65 740.263C397.845 738.069 399.027 735.03 399.027 731.991L398.858 479.778C398.858 479.61 399.027 479.272 399.196 479.103C399.365 478.934 399.534 478.934 399.871 478.934L439.217 480.116C442.763 480.285 445.971 478.428 447.998 475.558C449.855 472.519 450.193 468.805 448.504 465.767L391.259 350.296C390.077 347.426 388.557 344.556 387.038 341.855C374.879 321.09 353.434 307.754 329.455 306.403L167.345 297.287C167.176 297.287 167.176 297.287 167.007 297.287H166.163L165.994 296.949Z"
       fill="#090909"
       id="path6" />
    <path
       d="M487.85 376.294C497.813 358.061 501.19 336.115 492.24 316.87L480.757 321.09C480.757 321.09 469.781 289.69 468.092 266.731C463.702 258.966 431.955 275.341 431.955 275.341C431.955 275.341 435.164 266.731 436.684 262.511C438.372 257.953 440.061 253.057 439.048 248.33C438.034 243.603 433.137 239.383 428.578 240.902C424.019 242.422 415.407 261.16 412.705 265.55C396.494 292.054 396.663 326.83 399.533 356.88C401.053 372.917 393.792 537.683 396.494 545.111C413.211 589.341 475.354 590.185 493.422 546.461C495.786 537.852 496.968 529.073 497.306 520.295C497.813 508.309 478.055 401.785 477.718 398.071C477.211 393.007 479.744 388.617 482.446 384.228C484.472 381.527 486.33 378.995 487.85 376.294Z"
       fill="#F8EEE2"
       id="path8" />
    <path
       d="M445.465 579.55C445.127 579.55 444.958 579.55 444.621 579.55C422.33 579.212 403.755 566.044 395.819 545.28C394.299 541.397 395.481 501.387 397.17 440.782C398.352 401.279 399.365 363.97 398.689 356.88C395.988 328.687 395.143 292.729 412.03 265.043C412.705 264.03 413.718 262.004 414.9 259.641C419.966 249.85 424.863 241.071 428.241 239.889C430.267 239.214 432.462 239.552 434.489 240.733C437.191 242.253 439.217 245.123 439.724 247.993C440.737 253.057 438.879 258.29 437.359 262.511L433.307 273.315C440.737 269.601 464.378 258.628 468.599 265.887C468.599 266.056 468.768 266.056 468.768 266.225C470.288 286.82 479.407 314.507 481.095 319.571L491.734 315.688C492.072 315.519 492.578 315.688 492.747 316.195C501.021 334.089 499.502 356.036 488.357 376.294C487.343 378.151 485.992 380.176 484.81 382.033C484.304 382.878 483.628 383.722 483.122 384.566C480.082 389.293 478.056 393.344 478.562 397.733C478.562 398.578 480.082 407.018 482.109 418.667C487.85 451.08 498.488 511.179 498.151 519.957C497.813 528.904 496.462 537.683 494.267 546.293C485.992 567.057 467.248 579.55 445.465 579.55ZM430.605 241.409C430.098 241.409 429.592 241.409 428.916 241.746C425.877 242.759 419.797 254.408 416.589 260.654C415.407 263.017 414.394 265.043 413.718 266.056C397.001 293.236 398.014 328.856 400.547 356.88C401.222 364.139 400.209 401.447 399.027 441.119C397.676 487.882 396.156 541.059 397.507 544.942C405.106 565.031 423.175 577.693 444.621 578.03C466.066 578.199 484.473 566.213 492.747 546.293C494.942 537.852 496.293 529.073 496.631 520.295C496.969 511.685 486.33 451.586 480.589 419.342C478.394 407.356 477.043 399.253 477.043 398.24C476.536 392.838 479.069 388.28 481.94 383.89C482.446 383.046 483.122 382.202 483.628 381.358C484.979 379.501 486.161 377.644 487.175 375.787C497.813 356.204 499.502 335.102 491.903 317.883L481.264 321.766C481.095 321.766 480.758 321.766 480.589 321.766C480.42 321.597 480.251 321.428 480.082 321.259C479.913 320.922 469.106 289.69 467.417 266.9C464.209 262.004 444.452 269.939 432.462 276.016C432.125 276.185 431.787 276.185 431.449 275.847C431.111 275.679 431.111 275.172 431.28 275.003L436.009 262.173C437.528 258.122 439.386 253.226 438.373 248.499C437.866 245.967 436.008 243.603 433.813 242.253C432.969 241.915 431.787 241.409 430.605 241.409Z"
       fill="#090909"
       id="path10" />
    <path
       d="M425.708 292.898L455.259 322.272L477.212 279.561L472.652 260.147L432.463 275.003L425.708 292.898Z"
       fill="#090909"
       id="path12" />
    <path
       d="M472.483 337.297C464.546 338.647 457.116 333.414 455.765 325.48L442.425 248.33C441.074 240.396 446.309 232.968 454.246 231.617C462.182 230.267 469.612 235.5 470.963 243.434L484.304 320.584C485.654 328.518 480.42 335.946 472.483 337.297Z"
       fill="#FF8D1D"
       id="path14" />
    <path
       d="M470.119 338.479C466.91 338.479 463.871 337.466 461.338 335.609C457.961 333.245 455.765 329.7 455.09 325.648L441.75 248.499C441.074 244.447 441.918 240.396 444.283 237.019C446.647 233.643 450.193 231.448 454.246 230.773C458.298 230.098 462.351 230.942 465.728 233.305C469.106 235.669 471.301 239.214 471.976 243.266L485.317 320.415C486.836 328.687 481.095 336.79 472.821 338.141C471.807 338.31 470.963 338.479 470.119 338.479ZM456.779 232.124C455.934 232.124 455.259 232.124 454.414 232.293C450.868 232.968 447.66 234.825 445.633 237.864C443.607 240.902 442.763 244.447 443.269 247.993L456.61 325.142C457.285 328.687 459.143 331.895 462.182 333.921C465.222 335.946 468.768 336.79 472.314 336.284C479.744 334.933 484.81 327.843 483.459 320.415L470.119 243.266C469.443 239.721 467.586 236.513 464.546 234.487C462.351 233.137 459.649 232.124 456.779 232.124Z"
       fill="#090909"
       id="path16" />
    <path
       d="M470.288 243.772L443.607 248.33C438.034 249.343 432.631 245.46 431.786 239.889L430.773 233.981C429.76 228.41 433.644 223.008 439.217 222.164L465.897 217.605C471.47 216.593 476.873 220.475 477.718 226.046L478.731 231.955C479.575 237.357 475.86 242.759 470.288 243.772Z"
       fill="#FFF9F3"
       id="path18" />
    <path
       d="M441.75 249.343C436.515 249.343 431.787 245.46 430.773 240.058L429.76 234.149C428.747 228.072 432.8 222.332 438.879 221.319L465.56 216.761C471.639 215.748 477.38 219.8 478.393 225.877L479.406 231.786C480.42 237.863 476.367 243.603 470.288 244.616L443.607 249.174C443.1 249.343 442.425 249.343 441.75 249.343ZM467.417 218.112C466.91 218.112 466.404 218.112 465.728 218.281L439.048 222.839C433.982 223.683 430.436 228.579 431.28 233.812L432.293 239.72C433.137 244.785 438.035 248.33 443.269 247.486L469.95 242.928C475.016 242.084 478.562 237.188 477.718 231.955L476.705 226.046C476.029 221.488 471.976 218.112 467.417 218.112Z"
       fill="#090909"
       id="path20" />
    <path
       d="M398.013 207.983L390.077 209.333C386.193 210.009 382.647 207.476 381.971 203.594L381.802 202.074C381.127 198.192 383.66 194.646 387.544 193.971L395.311 192.621L398.013 207.983Z"
       fill="#F8EEE2"
       id="path22" />
    <path
       d="M388.895 210.346C387.375 210.346 385.687 209.84 384.336 208.827C382.647 207.645 381.465 205.788 381.127 203.763L380.958 202.412C380.283 198.192 383.154 194.14 387.375 193.296L395.143 191.945C395.312 191.945 395.65 191.945 395.818 192.114C395.987 192.283 396.156 192.452 396.156 192.621L398.858 207.814C398.858 207.983 398.858 208.321 398.689 208.489C398.52 208.658 398.351 208.827 398.183 208.827L390.415 210.178C389.908 210.346 389.402 210.346 388.895 210.346ZM394.636 193.802L387.713 194.984C384.336 195.49 382.14 198.698 382.647 202.074L382.816 203.425C383.154 205.113 383.998 206.464 385.349 207.476C386.7 208.489 388.388 208.827 389.908 208.489L396.832 207.308L394.636 193.802Z"
       fill="#090909"
       id="path24" />
    <path
       d="M477.887 227.566L437.021 234.656C417.095 238.032 398.014 224.696 394.636 204.775L393.285 197.179C389.908 177.258 403.248 158.182 423.174 154.805L464.04 147.715L477.887 227.566Z"
       fill="#FF8D1D"
       id="path26" />
    <path
       d="M430.773 236.006C412.874 236.006 397 223.176 393.792 204.775L392.441 197.178C388.895 176.752 402.573 157.338 423.005 153.792L463.871 146.702C464.377 146.702 464.715 146.871 464.884 147.377L478.731 227.228C478.731 227.397 478.731 227.734 478.562 227.903C478.393 228.072 478.224 228.241 478.055 228.241L437.19 235.331C434.995 235.838 432.968 236.006 430.773 236.006ZM463.364 148.728L423.343 155.649C403.924 159.026 390.752 177.596 394.13 197.01L395.48 204.606C398.858 224.02 417.433 237.188 436.852 233.812L476.873 226.89L463.364 148.728Z"
       fill="#090909"
       id="path28" />
    <path
       d="M464.208 147.715L478.055 227.566C509.633 222.163 542.393 226.722 571.438 241.071L635.944 272.471L597.949 52.5022L547.628 103.823C525 126.782 495.786 142.144 464.208 147.715Z"
       fill="#F8EEE2"
       stroke="#090909"
       stroke-miterlimit="10"
       stroke-linecap="round"
       stroke-linejoin="round"
       id="path30" />
    <path
       d="M638.294 272.537C653.09 269.984 656.545 218.46 646.012 157.456C635.478 96.4517 614.945 49.0678 600.149 51.6211C585.353 54.1745 581.898 105.698 592.431 166.702C602.965 227.707 623.498 275.091 638.294 272.537Z"
       fill="#FFF9F3"
       stroke="#090909"
       stroke-miterlimit="10"
       stroke-linecap="round"
       stroke-linejoin="round"
       id="path32" />
    <path
       d="M619.227 250.018C631.351 250.018 641.179 209.657 641.179 159.87C641.179 110.082 631.351 69.7214 619.227 69.7214C607.103 69.7214 597.274 110.082 597.274 159.87C597.274 209.657 607.103 250.018 619.227 250.018Z"
       fill="#F8EEE2"
       id="path34" />
    <path
       d="M573.295 148.053L601.834 143.157C613.485 141.131 624.63 148.897 626.657 160.714C628.683 172.362 620.915 183.504 609.095 185.53L580.557 190.426L573.295 148.053Z"
       fill="#FF8D1D"
       stroke="#090909"
       stroke-miterlimit="10"
       stroke-linecap="round"
       stroke-linejoin="round"
       id="path36" />
    <path
       d="M619.227 250.018C631.351 250.018 641.179 209.657 641.179 159.87C641.179 110.082 631.351 69.7214 619.227 69.7214C607.103 69.7214 597.274 110.082 597.274 159.87C597.274 209.657 607.103 250.018 619.227 250.018Z"
       stroke="#090909"
       stroke-miterlimit="10"
       stroke-linecap="round"
       stroke-linejoin="round"
       id="path38" />
    <path
       d="M485.992 227.228C485.655 227.228 485.148 226.89 485.148 226.553L471.808 146.196C471.808 145.689 471.976 145.352 472.483 145.183C472.99 145.183 473.327 145.352 473.496 145.858L486.837 226.215C486.837 226.722 486.499 227.059 485.992 227.228Z"
       fill="#090909"
       id="path40" />
    <path
       d="M502.203 274.159L502.372 274.497C504.06 279.561 501.19 285.132 495.955 286.82L466.741 296.105C461.675 297.794 456.103 294.924 454.414 289.69L454.245 289.353C452.557 284.288 455.427 278.717 460.662 277.029L489.876 267.744C494.942 266.225 500.514 269.095 502.203 274.159Z"
       fill="#F8EEE2"
       id="path42" />
    <path
       d="M463.87 297.287C462.182 297.287 460.493 296.949 458.973 296.105C456.44 294.755 454.583 292.56 453.739 289.859L453.57 289.521C451.881 283.95 454.921 278.042 460.493 276.185L489.707 266.9C495.279 265.212 501.189 268.25 503.047 273.821L503.216 274.159C504.905 279.73 501.865 285.639 496.292 287.496L467.079 296.781C465.897 297.118 464.884 297.287 463.87 297.287ZM492.915 268.25C492.071 268.25 491.058 268.419 490.213 268.588L461 277.873C456.271 279.392 453.739 284.457 455.258 289.015L455.427 289.353C456.103 291.547 457.791 293.404 459.818 294.586C462.013 295.768 464.377 295.936 466.572 295.261L495.786 285.976C500.514 284.457 503.047 279.392 501.527 274.834L501.358 274.497C500.176 270.614 496.63 268.25 492.915 268.25Z"
       fill="#090909"
       id="path44" />
    <path
       d="M496.462 254.408L496.631 254.745C498.319 259.81 495.448 265.381 490.214 267.069L461 276.354C455.934 278.042 450.362 275.172 448.673 269.939L448.504 269.601C446.815 264.537 449.686 258.966 454.921 257.278L484.135 247.993C489.2 246.473 494.773 249.343 496.462 254.408Z"
       fill="#F8EEE2"
       id="path46" />
    <path
       d="M458.129 277.535C456.441 277.535 454.752 277.198 453.232 276.354C450.699 275.003 448.842 272.809 447.997 270.108L447.829 269.77C446.984 267.069 447.153 264.199 448.504 261.667C449.855 259.134 452.05 257.277 454.752 256.433L483.966 247.148C489.538 245.46 495.448 248.499 497.306 254.07L497.475 254.408C498.319 257.109 498.15 259.979 496.799 262.511C495.448 265.043 493.253 266.9 490.551 267.744L461.338 277.029C460.156 277.367 459.142 277.535 458.129 277.535ZM487.174 248.499C486.33 248.499 485.316 248.668 484.472 248.837L455.259 258.122C453.063 258.797 451.206 260.485 450.024 262.511C448.842 264.705 448.673 267.069 449.348 269.263L449.517 269.601C450.193 271.796 451.881 273.653 453.908 274.834C456.103 276.016 458.467 276.185 460.662 275.51L489.876 266.225C492.071 265.549 493.929 263.861 495.111 261.836C496.293 259.641 496.462 257.277 495.786 255.083L495.617 254.745C494.435 250.862 490.889 248.499 487.174 248.499Z"
       fill="#090909"
       id="path48" />
    <path
       d="M502.203 294.248C503.891 299.313 501.021 304.884 495.955 306.403L476.029 312.649C470.963 314.337 465.559 311.468 463.871 306.403V306.234C462.182 301.17 465.053 295.768 470.119 294.079L490.045 287.833C495.279 286.483 500.683 289.184 502.203 294.248Z"
       fill="#F8EEE2"
       id="path50" />
    <path
       d="M473.158 314.169C468.768 314.169 464.546 311.299 463.195 306.91C461.338 301.339 464.546 295.43 469.95 293.573L489.876 287.327C492.578 286.483 495.448 286.651 497.812 288.002C500.345 289.353 502.203 291.547 503.047 294.079V294.248C503.892 296.949 503.723 299.819 502.372 302.183C501.021 304.715 498.826 306.572 496.293 307.416L476.367 313.662C475.353 314 474.34 314.169 473.158 314.169ZM493.084 288.508C492.24 288.508 491.227 288.677 490.382 288.846L470.456 295.092C465.897 296.612 463.195 301.507 464.715 306.065C466.235 310.792 471.132 313.325 475.86 311.805L495.786 305.559C497.981 304.884 499.839 303.364 500.852 301.17C501.865 299.144 502.203 296.612 501.359 294.417V294.248C500.683 292.054 499.163 290.197 496.968 289.184C495.786 288.846 494.435 288.508 493.084 288.508Z"
       fill="#090909"
       id="path52" />
    <path
       d="M507.776 312.987L507.944 313.325C509.633 318.389 506.762 323.96 501.528 325.648L491.733 328.856C486.668 330.544 481.095 327.674 479.406 322.441L479.237 322.103C477.549 317.039 480.42 311.468 485.654 309.78L495.448 306.572C500.514 305.053 506.087 307.923 507.776 312.987Z"
       fill="#F8EEE2"
       id="path54" />
    <path
       d="M488.694 330.038C487.005 330.038 485.316 329.7 483.797 328.856C481.264 327.505 479.406 325.311 478.562 322.61L478.393 322.272C477.549 319.571 477.718 316.701 479.069 314.169C480.419 311.637 482.615 309.78 485.316 308.936L495.111 305.728C500.683 304.04 506.593 307.079 508.451 312.649L508.62 312.987C509.464 315.688 509.295 318.558 507.944 321.09C506.593 323.623 504.398 325.48 501.696 326.324L491.902 329.531C490.889 329.869 489.707 330.038 488.694 330.038ZM498.319 307.079C497.475 307.079 496.462 307.247 495.617 307.416L485.823 310.624C483.628 311.299 481.77 312.987 480.588 315.013C479.406 317.208 479.237 319.571 479.913 321.766L480.082 322.103C480.757 324.298 482.446 326.155 484.472 327.337C486.667 328.518 489.032 328.687 491.227 328.012L501.021 324.804C503.216 324.129 505.074 322.441 506.256 320.415C507.438 318.22 507.607 315.857 506.762 313.662L506.593 313.325C505.749 309.442 502.203 307.079 498.319 307.079Z"
       fill="#090909"
       id="path56" />
    <path
       d="M431.618 277.029C431.618 277.029 435.164 266.731 436.852 262.511C438.541 257.953 440.23 253.057 439.216 248.33C438.203 243.603 433.306 239.383 428.747 240.902C424.187 242.422 415.575 261.16 412.874 265.549"
       fill="#F8EEE2"
       id="path58" />
    <path
       d="M432.293 277.198L430.773 276.691C430.773 276.691 434.319 266.394 436.008 262.173C437.528 258.122 439.385 253.226 438.372 248.499C437.866 245.967 436.008 243.603 433.813 242.253C432.631 241.577 430.942 240.902 428.916 241.577C425.876 242.59 419.797 254.239 416.589 260.485C415.406 262.848 414.393 264.874 413.718 265.887C413.549 266.225 412.874 266.394 412.536 266.225C412.198 266.056 412.029 265.381 412.198 265.043C412.874 264.03 413.887 262.004 415.069 259.641C420.135 249.85 425.032 241.071 428.409 239.889C430.435 239.214 432.631 239.552 434.657 240.733C437.359 242.253 439.385 245.123 439.892 247.993C440.905 253.057 439.048 258.29 437.528 262.511C436.008 267.069 432.293 277.198 432.293 277.198Z"
       fill="#090909"
       id="path60" />
    <path
       d="M423.512 305.221C423.006 305.221 422.668 304.884 422.668 304.377C422.837 295.092 430.436 277.535 430.773 276.691C430.942 276.185 431.449 276.016 431.956 276.185C432.462 276.354 432.631 276.86 432.462 277.367C432.462 277.535 424.694 295.43 424.525 304.377C424.357 304.715 424.019 305.221 423.512 305.221Z"
       fill="#090909"
       id="path62" />
    <path
       d="M365.254 84.5774C365.592 84.0709 365.929 83.3957 366.267 82.8892C370.826 77.6559 373.866 71.2408 374.541 63.8129C376.23 45.243 362.721 28.8677 344.146 27.1795C342.626 27.0107 341.106 27.0107 339.586 27.1795C323.207 12.9989 311.893 -2.19466 283.186 1.51932C272.209 2.86986 261.909 8.60964 255.661 17.7258C254.816 19.0763 253.972 20.4268 253.297 21.7774C252.79 22.9591 238.099 24.4785 236.241 25.1537C222.563 28.8677 205.17 34.6075 198.415 48.1129C195.376 54.0215 194.532 60.7742 194.194 67.5269C183.893 75.6301 179.672 90.1484 183.893 103.147L194.7 136.911C196.896 136.404 199.26 136.067 201.624 136.067H215.302C216.146 137.417 216.991 138.937 217.835 140.456C222.057 147.884 224.758 155.987 224.421 164.597C242.151 139.781 326.753 146.364 345.666 146.364C364.41 146.364 379.776 131.171 379.776 112.263C379.438 100.784 373.866 90.8236 365.254 84.5774Z"
       fill="#090909"
       id="path64" />
    <path
       d="M224.252 165.272C224.083 165.272 224.083 165.272 223.914 165.272C223.576 165.103 223.408 164.766 223.408 164.428C223.745 156.831 221.55 148.897 216.822 140.625C216.146 139.274 215.302 138.092 214.627 136.742H201.455C199.26 136.742 196.896 137.08 194.701 137.586C194.194 137.755 193.856 137.417 193.687 137.08L182.88 103.316C178.658 89.9795 182.711 75.4613 193.181 67.0204C193.35 61.7871 194.025 54.3591 197.402 47.6064C203.988 34.6075 219.693 28.6989 235.904 24.3096C236.579 24.1408 238.605 23.8032 241.138 23.4655C244.853 22.9591 251.439 21.9462 252.621 21.2709C253.466 19.7516 254.141 18.401 254.985 17.2193C261.233 8.10318 271.534 2.02576 283.186 0.506407C308.178 -2.70112 320.505 8.60963 333.507 20.4268C335.534 22.2838 337.729 24.3096 339.924 26.1666C341.613 26.1666 342.964 26.1666 344.315 26.3354C353.433 27.1795 361.877 31.5688 367.618 38.6591C373.528 45.7494 376.23 54.6967 375.386 63.8129C374.71 71.072 371.84 77.8247 366.943 83.2268C366.774 83.5645 366.605 83.9021 366.436 84.2397C375.217 90.8236 380.283 101.121 380.283 112.095C380.283 131.34 364.579 147.04 345.328 147.04C342.795 147.04 339.249 146.871 334.689 146.871C306.32 146.027 239.956 144.001 224.759 165.103C224.759 165.272 224.421 165.272 224.252 165.272ZM201.455 135.223H215.133C215.471 135.223 215.64 135.391 215.809 135.56C216.653 136.911 217.497 138.43 218.342 139.949C222.732 147.715 224.927 154.974 225.096 162.233C242.996 142.482 304.8 144.339 334.858 145.183C339.418 145.352 342.964 145.352 345.328 145.352C363.565 145.352 378.594 130.496 378.594 112.095C378.594 101.459 373.36 91.4989 364.747 85.2526C364.579 85.0838 364.41 84.915 364.41 84.7462C364.41 84.5774 364.41 84.2397 364.579 84.0709C364.916 83.5645 365.254 83.058 365.423 82.5516C365.423 82.3828 365.592 82.3828 365.592 82.2139C370.151 76.9806 373.022 70.5655 373.697 63.644C374.542 54.8655 371.84 46.4247 366.267 39.672C360.695 32.9193 352.758 28.6989 343.977 28.0236C342.626 27.8548 341.106 27.8548 339.418 28.0236C339.249 28.0236 338.911 28.0236 338.911 27.8548C336.547 25.829 334.352 23.8032 332.325 21.9462C318.985 9.79135 307.502 -0.675313 283.355 2.3634C272.21 3.88275 262.247 9.62254 256.336 18.2322C255.492 19.4139 254.816 20.5957 254.141 22.115C253.634 22.9591 251.946 23.4655 241.476 24.9849C239.281 25.3225 237.086 25.6602 236.579 25.829C220.875 30.2182 205.508 35.958 199.26 48.2817C196.727 53.3462 195.376 59.2548 195.207 67.358C195.207 67.5268 195.038 67.8645 194.869 68.0333C184.738 75.9677 180.685 89.9795 184.906 102.81L195.376 135.898C197.065 135.391 199.26 135.223 201.455 135.223Z"
       fill="#090909"
       id="path66" />
    <path
       d="M298.384 87.9536C294.838 86.0966 291.291 83.902 287.408 83.3955C277.613 82.045 268.664 90.1482 258.869 89.8106C251.777 89.6418 245.191 84.5773 242.996 77.6558C248.737 107.536 241.814 139.612 224.083 164.428C224.421 155.649 221.719 147.715 217.498 140.287C216.653 138.768 215.809 137.417 214.965 135.898H201.287C198.922 135.898 196.558 136.235 194.363 136.742C181.867 139.949 172.411 151.26 172.411 164.765V167.635C172.411 183.504 185.413 196.672 201.455 196.672H209.223L201.455 293.404C199.26 321.597 220.199 346.413 248.569 348.607L253.635 348.945C281.835 351.14 306.658 330.206 308.853 301.845L311.724 265.38C337.223 264.874 357.824 244.11 357.824 218.449V105.342C357.824 100.446 356.98 95.7192 355.629 91.1611C353.265 92.5117 350.901 93.6934 348.368 94.5375C331.988 100.446 313.75 96.0568 298.384 87.9536Z"
       fill="#F8EEE2"
       id="path68" />
    <path
       d="M257.687 350.127C256.336 350.127 254.817 350.127 253.466 349.958L248.4 349.62C234.553 348.439 221.888 342.023 212.769 331.388C203.651 320.753 199.429 307.247 200.442 293.404L208.041 197.685H201.287C184.907 197.685 171.397 184.348 171.397 167.804V164.934C171.397 151.26 180.685 139.443 194.025 136.066C196.389 135.391 198.922 135.222 201.287 135.222H214.965C215.302 135.222 215.471 135.391 215.64 135.56C216.484 136.911 217.329 138.43 218.173 139.949C222.563 147.546 224.759 154.805 224.928 161.896C241.307 137.755 247.724 106.692 242.152 77.9934C241.983 77.4869 242.321 77.1493 242.827 76.9804C243.334 76.8116 243.672 77.1493 243.84 77.4869C245.867 83.902 252.115 88.7977 258.869 88.9665C263.429 89.1353 267.65 87.2783 272.041 85.7589C276.938 83.7331 282.173 81.7073 287.576 82.5514C291.291 83.0579 294.5 84.9149 297.539 86.603L298.721 87.2783C308.853 92.6805 328.779 100.784 348.03 94.031C350.394 93.1869 352.758 92.174 355.122 90.6546C355.291 90.4858 355.629 90.4858 355.798 90.6546C355.967 90.8235 356.304 90.9923 356.304 91.1611C357.824 95.888 358.5 100.615 358.5 105.511V218.618C358.5 244.278 337.898 265.549 312.231 266.393L309.36 302.014C308.178 315.857 301.761 328.518 291.123 337.634C281.835 345.737 270.014 350.127 257.687 350.127ZM201.455 136.911C199.26 136.911 196.896 137.248 194.701 137.755C182.205 140.962 173.424 152.104 173.424 164.934V167.804C173.424 183.335 186.089 195.997 201.624 195.997H209.392C209.561 195.997 209.899 196.165 210.067 196.334C210.236 196.503 210.236 196.672 210.236 197.009L202.469 293.742C201.455 307.247 205.677 320.246 214.289 330.544C223.07 340.842 235.228 347.088 248.738 348.101L253.803 348.439C267.313 349.451 280.315 345.231 290.616 336.621C300.917 327.843 307.165 315.688 308.178 302.183L311.049 265.718C311.049 265.212 311.386 264.874 311.893 264.874C336.885 264.536 357.149 243.772 357.149 218.787V105.679C357.149 101.459 356.473 97.0697 355.291 92.8493C353.265 94.031 351.07 95.0439 348.874 95.7192C328.948 102.641 308.516 94.3686 298.215 88.7977L297.033 88.1224C293.993 86.4342 290.954 84.746 287.576 84.2396C282.679 83.5643 277.951 85.4213 272.885 87.2783C268.495 88.9665 263.935 90.8235 259.038 90.6546C253.466 90.4858 248.231 87.6159 245.022 83.0579C249.075 111.419 241.645 141.637 225.096 164.934C224.928 165.272 224.421 165.441 224.083 165.272C223.746 165.103 223.577 164.765 223.577 164.428C223.914 156.831 221.719 148.897 216.991 140.625C216.315 139.274 215.471 138.092 214.796 136.742H201.455V136.911Z"
       fill="#090909"
       id="path70" />
    <path
       d="M215.978 196.841L206.859 221.657L201.118 196.672L215.978 196.841Z"
       fill="#090909"
       id="path72" />
    <path
       d="M206.859 222.501C206.353 222.501 206.184 222.163 206.015 221.826L200.273 196.841C200.273 196.672 200.273 196.334 200.442 196.166C200.611 195.997 200.949 195.828 201.118 195.828L215.978 195.997C216.316 195.997 216.484 196.166 216.653 196.334C216.822 196.503 216.822 196.841 216.822 197.178L207.703 222.163C207.535 222.332 207.197 222.501 206.859 222.501ZM202.131 197.516L207.028 218.787L214.796 197.685L202.131 197.516Z"
       fill="#090909"
       id="path74" />
    <path
       d="M197.403 157L208.041 168.817L198.078 175.401"
       fill="#F8EEE2"
       id="path76" />
    <path
       d="M198.078 176.245C197.741 176.245 197.572 176.076 197.403 175.907C197.065 175.57 197.234 175.063 197.572 174.726L206.69 168.817L196.727 157.675C196.39 157.338 196.39 156.831 196.727 156.493C197.065 156.156 197.572 156.156 197.909 156.493L208.548 168.311C208.717 168.479 208.717 168.817 208.717 168.986C208.717 169.155 208.548 169.492 208.379 169.661L198.416 176.076C198.416 176.076 198.247 176.245 198.078 176.245Z"
       fill="#090909"
       id="path78" />
    <path
       d="M311.386 180.803H303.281C302.774 180.803 302.437 180.466 302.437 179.959C302.437 179.453 302.774 179.115 303.281 179.115H311.386C314.088 179.115 316.621 177.933 318.31 175.907C319.998 173.882 320.674 171.181 320.336 168.48L315.27 139.949C315.27 139.443 315.439 139.105 315.946 138.936C316.452 138.768 316.79 139.105 316.959 139.612L322.025 168.142C322.531 171.349 321.687 174.388 319.661 176.92C317.634 179.284 314.595 180.803 311.386 180.803Z"
       fill="#090909"
       id="path80" />
    <path
       d="M338.067 154.974C338.574 158.182 336.548 161.22 333.339 161.896C330.131 162.402 327.091 160.376 326.416 157.169C325.909 153.961 327.936 150.922 331.144 150.247C334.352 149.572 337.392 151.766 338.067 154.974Z"
       fill="#090909"
       id="path82" />
    <path
       d="M306.321 234.656C305.983 234.656 305.814 234.656 305.477 234.656C305.139 234.487 298.722 231.617 293.825 236.85C293.318 237.357 292.643 237.357 292.136 236.85C291.63 236.344 291.63 235.669 292.136 235.162C298.215 228.747 306.49 232.461 306.49 232.461C307.165 232.799 307.334 233.474 307.165 234.149C306.996 234.318 306.659 234.487 306.321 234.656Z"
       fill="#090909"
       id="path84" />
    <path
       d="M259.039 133.028C261.909 133.365 265.287 132.015 268.495 130.833C271.703 129.652 275.081 128.47 277.951 127.626C280.822 126.782 284.199 125.938 287.577 125.093C290.954 124.249 294.331 123.574 296.527 121.548C298.722 119.691 298.722 116.484 294.669 113.614C290.785 110.913 282.511 109.056 272.885 111.926C263.429 114.796 257.519 120.873 255.83 125.262C254.141 130.158 256.168 132.859 259.039 133.028Z"
       fill="#090909"
       id="path86" />
    <path
       d="M350.395 128.301C348.199 128.638 345.835 127.794 343.302 126.95C340.938 126.106 338.405 125.262 336.379 124.756C334.183 124.08 331.819 123.574 329.286 123.067C326.753 122.561 324.22 122.055 322.532 120.535C321.012 119.185 320.843 116.315 323.883 113.783C326.753 111.25 333.001 109.562 340.094 111.419C347.186 113.445 351.577 118.172 352.59 121.717C353.941 125.6 352.421 127.963 350.395 128.301Z"
       fill="#090909"
       id="path88" />
    <path
       d="M286.563 157C286.226 160.545 283.186 163.246 279.64 162.909C276.094 162.571 273.392 159.532 273.73 155.987C274.067 152.442 277.107 149.741 280.653 150.079C284.199 150.247 286.901 153.455 286.563 157Z"
       fill="#090909"
       id="path90" />
    <path
       d="M273.561 163.246C273.561 163.246 279.302 159.026 284.874 164.09L273.561 163.246Z"
       fill="#F8EEE2"
       id="path92" />
    <path
       d="M284.875 164.934C284.706 164.934 284.537 164.934 284.368 164.765C279.302 160.376 274.236 163.921 274.067 164.09C273.73 164.428 273.223 164.259 272.885 163.921C272.548 163.584 272.716 163.077 273.054 162.74C273.054 162.74 279.471 158.35 285.381 163.584C285.719 163.921 285.719 164.428 285.381 164.765C285.381 164.765 285.044 164.934 284.875 164.934Z"
       fill="#090909"
       id="path94" />
    <path
       d="M327.598 162.909C327.598 162.909 332.832 160.545 337.561 163.077L327.598 162.909Z"
       fill="#F8EEE2"
       id="path96" />
    <path
       d="M337.561 163.753C337.392 163.753 337.223 163.753 337.223 163.584C332.832 161.389 327.935 163.415 327.935 163.415C327.429 163.584 327.091 163.415 326.753 162.909C326.584 162.402 326.753 162.064 327.26 161.727C327.429 161.558 332.832 159.195 338.067 161.896C338.405 162.064 338.574 162.571 338.405 163.077C338.236 163.584 337.898 163.753 337.561 163.753Z"
       fill="#090909"
       id="path98" />
    <path
       d="M271.873 181.985C274.068 180.466 277.107 180.803 279.134 182.66C282.68 186.037 290.617 191.776 301.762 192.958C304.464 193.296 305.983 196.503 304.801 199.035C302.268 204.606 295.176 213.047 280.654 206.295C262.923 198.023 265.962 185.868 271.873 181.985Z"
       fill="#FFF9F3"
       id="path100" />
    <path
       d="M290.447 209.671C287.577 209.671 284.199 208.995 280.147 207.139C268.664 201.736 266.638 195.152 266.3 191.776C265.962 187.725 267.988 183.673 271.197 181.478C273.73 179.79 277.107 180.128 279.471 182.322C283.017 185.53 290.785 191.27 301.761 192.451C303.281 192.62 304.463 193.464 305.308 194.815C306.152 196.334 306.152 198.191 305.476 199.711C304.126 202.243 299.735 209.671 290.447 209.671ZM272.21 182.829C270.015 184.179 267.651 187.387 267.988 191.607C268.326 196.841 272.886 201.905 280.822 205.619C295.513 212.541 301.761 203.087 303.788 198.866C304.294 197.854 304.294 196.503 303.619 195.49C303.112 194.646 302.268 194.14 301.424 193.971C289.941 192.789 282.004 186.88 278.289 183.504C276.601 181.816 274.068 181.478 272.21 182.829Z"
       fill="#090909"
       id="path102" />
    <path
       d="M311.387 265.887C311.387 265.887 258.532 269.263 245.529 247.992C245.529 247.992 257.181 283.275 309.022 295.43L311.387 265.887Z"
       fill="#090909"
       id="path104" />
    <path
       d="M309.022 296.274H308.854C257.35 284.119 244.854 248.499 244.854 248.161C244.685 247.824 244.854 247.317 245.36 247.148C245.698 246.979 246.205 247.148 246.374 247.486C259.038 268.25 310.88 265.043 311.387 265.043C311.555 265.043 311.893 265.043 312.062 265.212C312.231 265.381 312.4 265.549 312.231 265.887L309.867 295.43C309.867 295.599 309.698 295.936 309.529 296.105C309.36 296.105 309.191 296.274 309.022 296.274ZM249.075 253.395C254.817 263.692 271.028 285.132 308.178 294.248L310.373 266.731C303.619 267.069 265.455 268.25 249.075 253.395Z"
       fill="#090909"
       id="path106" />
    <path
       d="M14.522 630.701L19.2502 509.153L146.912 513.204C146.912 513.88 159.07 422.887 159.07 423.562L146.912 513.204L129.857 512.698L128.168 553.214C128.168 553.214 243.84 494.128 253.803 482.142C253.803 482.142 287.239 448.716 300.748 439.769C302.099 438.756 303.618 437.912 305.307 437.405C306.996 436.899 308.853 437.068 310.204 438.249C311.893 439.6 312.231 442.301 312.062 444.496C311.724 451.417 309.022 458.001 306.151 464.585C306.996 464.247 391.597 436.392 396.156 435.211C404.093 433.185 403.755 444.327 398.183 450.235C390.922 457.832 357.317 475.558 355.46 476.064C363.565 475.727 371.333 474.039 373.36 487.375C374.71 496.491 366.605 499.024 358.331 500.037C363.565 500.205 367.956 501.894 368.462 508.14C370.489 518.606 361.877 522.827 353.265 523.84C352.927 523.84 352.927 524.177 353.265 524.346C360.357 527.047 355.46 540.046 344.99 543.929L286.732 568.408C280.822 571.109 124.96 689.618 124.96 689.618C106.891 702.28 85.9518 704.981 67.2078 700.254C36.1367 691.813 14.6908 662.945 14.522 630.701Z"
       fill="#F8EEE2"
       id="path108" />
    <path
       d="M84.9387 702.786C79.0285 702.786 73.1182 702.111 67.2079 700.591C35.968 692.657 14.0155 663.958 13.8467 630.701L18.5749 509.153C18.5749 508.646 18.9126 508.309 19.4192 508.309L146.237 512.36L157.719 426.939C157.888 425.926 157.888 425.25 158.057 424.744L158.226 423.562C158.395 422.718 158.564 422.718 159.07 422.887C159.577 422.887 159.915 423.393 159.746 423.731L154.849 460.027C154.68 461.715 154.342 463.403 154.173 465.091L148.263 509.153C148.094 510.334 147.925 511.347 147.925 512.023L147.756 513.373C147.756 513.542 147.588 513.711 147.588 513.88C147.419 514.217 147.25 514.217 146.912 514.048L130.87 513.542L129.181 551.695C141.846 545.111 244.178 492.44 253.297 481.467C253.635 481.129 287.07 447.872 300.41 438.925C301.93 437.912 303.45 436.899 305.307 436.392C307.503 435.886 309.529 436.224 311.049 437.405C312.737 438.756 313.413 440.951 313.244 444.327C312.906 450.911 310.542 456.988 308.009 462.897C308.516 462.728 309.191 462.559 309.867 462.221C377.919 439.769 394.468 434.367 396.494 433.86C400.378 432.847 402.067 434.704 402.742 435.886C404.769 439.431 403.249 446.015 399.196 450.235C393.286 456.482 369.814 469.649 360.019 474.376C366.605 474.207 372.684 475.052 374.542 486.531C375.048 489.739 374.373 492.271 372.853 494.466C370.827 497.167 367.281 498.517 363.903 499.361C367.449 500.543 369.476 503.244 369.814 507.296C370.489 511.01 369.982 514.386 367.956 517.087C365.085 521.139 359.851 522.827 355.629 523.502C357.149 524.684 357.993 526.541 357.824 528.735C357.824 533.969 353.265 541.059 345.666 543.76L287.576 568.239C283.017 570.264 179.841 648.258 125.973 689.281C113.308 698.397 99.2922 702.786 84.9387 702.786ZM15.3665 630.701C15.5353 663.114 36.9811 691.138 67.5457 698.903C87.4717 703.968 107.735 700.254 124.622 688.436C131.039 683.541 280.484 569.927 286.563 567.226L344.822 542.747C351.576 540.215 355.798 533.8 355.798 529.242C355.798 527.723 355.291 525.528 352.927 524.684C352.421 524.515 352.252 524.009 352.252 523.502C352.252 522.996 352.758 522.658 353.265 522.489C359.344 521.814 363.903 519.619 366.267 516.412C367.956 514.048 368.463 511.178 367.787 507.802C367.449 502.906 364.41 500.712 358.5 500.374C357.993 500.374 357.655 500.036 357.655 499.53C357.655 499.024 357.993 498.686 358.331 498.686C365.085 497.842 369.138 496.323 371.164 493.621C372.515 491.933 373.022 489.739 372.515 487.038C370.827 475.727 365.085 476.064 357.655 476.402C356.98 476.402 356.304 476.402 355.629 476.571C355.122 476.571 354.785 476.233 354.785 475.896C354.785 475.389 354.953 475.052 355.46 474.883C357.655 474.207 390.753 456.65 397.845 449.223C401.56 445.34 402.573 439.431 401.054 436.899C400.209 435.548 398.689 435.042 396.663 435.548C394.806 436.055 378.257 441.288 310.204 463.741C308.009 464.416 306.658 464.923 306.658 464.923C306.32 465.091 305.983 464.923 305.814 464.754C305.645 464.585 305.476 464.078 305.645 463.91C308.347 457.663 311.049 451.08 311.386 444.158C311.555 441.457 311.049 439.6 309.698 438.587C308.685 437.743 307.165 437.574 305.476 437.912C303.956 438.249 302.605 439.262 301.086 440.106C287.914 449.054 254.648 482.142 254.31 482.479C244.516 494.297 133.234 551.357 128.506 553.72C128.168 553.889 127.999 553.889 127.662 553.72C127.324 553.552 127.324 553.214 127.324 553.045L129.012 513.373L20.0947 509.828L15.3665 630.701Z"
       fill="#090909"
       id="path110" />
    <path
       d="M128.506 532.281L78.1841 579.55L128.168 554.058L128.506 532.281Z"
       fill="#090909"
       id="path112" />
    <path
       d="M305.645 465.429L274.236 480.116C274.236 480.116 303.788 456.65 309.698 454.793L305.645 465.429Z"
       fill="#090909"
       id="path114" />
    <path
       d="M338.067 481.129C338.067 481.129 357.149 474.714 360.526 474.714L338.067 481.129Z"
       fill="#F8EEE2"
       id="path116" />
    <path
       d="M338.067 481.973C337.729 481.973 337.392 481.804 337.223 481.467C337.054 480.96 337.392 480.623 337.729 480.454C338.574 480.116 356.98 474.039 360.357 473.87C360.864 473.87 361.201 474.208 361.201 474.714C361.201 475.22 360.864 475.558 360.357 475.558C357.655 475.727 343.471 480.285 338.067 481.973C338.067 481.973 338.236 481.973 338.067 481.973Z"
       fill="#090909"
       id="path118" />
    <path
       d="M342.458 505.776C342.12 505.776 341.782 505.607 341.613 505.101C341.444 504.595 341.782 504.257 342.12 504.088L359.851 498.517C360.357 498.348 360.695 498.686 360.864 499.024C361.033 499.53 360.695 499.868 360.357 500.036L342.626 505.607C342.626 505.776 342.458 505.776 342.458 505.776Z"
       fill="#090909"
       id="path120" />
    <path
       d="M342.458 527.216C342.12 527.216 341.782 527.047 341.613 526.541C341.444 526.034 341.782 525.697 342.12 525.528L351.745 522.827C352.252 522.658 352.589 522.995 352.758 523.333C352.927 523.84 352.589 524.177 352.252 524.346L342.626 527.047C342.626 527.216 342.626 527.216 342.458 527.216Z"
       fill="#090909"
       id="path122" />
  </g>
  <defs
     id="defs129">
    <clipPath
       id="clip0_149:51">
      <rect
         width="653"
         height="785"
         fill="white"
         id="rect126" />
    </clipPath>
  </defs>
</svg>
