<svg width="21" height="23" viewBox="0 0 21 23" fill="none" xmlns="http://www.w3.org/2000/svg">
<path d="M16.5 11.5C16.5 11.5982 16.4295 11.7963 16.0466 12.0626C15.6784 12.3186 15.113 12.5694 14.3693 12.7881C12.8886 13.2236 10.8133 13.5 8.5 13.5C6.18671 13.5 4.11144 13.2236 2.63068 12.7881C1.88702 12.5694 1.32161 12.3186 0.953427 12.0626C0.570525 11.7963 0.5 11.5982 0.5 11.5C0.5 11.4018 0.570525 11.2037 0.953427 10.9374C1.32161 10.6814 1.88702 10.4306 2.63068 10.2119C4.11144 9.7764 6.18671 9.5 8.5 9.5C10.8133 9.5 12.8886 9.7764 14.3693 10.2119C15.113 10.4306 15.6784 10.6814 16.0466 10.9374C16.4295 11.2037 16.5 11.4018 16.5 11.5Z" stroke="#0B1D25"/>
<path d="M1 12V18C1 20.2091 2.79086 22 5 22H12C14.2091 22 16 20.2091 16 18V12" stroke="#0B1D25"/>
<path d="M16 12.5H16.75C18.5449 12.5 20 13.9551 20 15.75V15.75C20 17.5449 18.5449 19 16.75 19H16" stroke="#0B1D25"/>
<path d="M7.49997 1C6.8333 1.5 4.97678 3.47688 6.49997 5C7.50001 6 7.5 7.5 6.49997 8.5" stroke="#0B1D25" stroke-linecap="round"/>
<path d="M11 3C10.5794 3.33333 9.40801 4.65125 10.3691 5.66667C11 6.33333 11 7.33333 10.3691 8" stroke="#0B1D25" stroke-linecap="round"/>
</svg>
