<svg width="41" height="40" viewBox="0 0 41 40" fill="none" xmlns="http://www.w3.org/2000/svg">
<circle cx="25.5" cy="15.5" r="15.5" fill="url(#paint0_linear_0_1)"/>
<path d="M6.06862 23.1865C6.90352 23.1865 7.63282 22.8202 8.15422 22.2988C8.25982 22.6123 8.36212 22.9753 8.52052 23.2888C7.84402 23.8102 7.00912 24.1765 6.06862 24.1765C3.93022 24.1765 2.15812 22.4539 2.15812 20.3155C2.15812 18.1771 3.93022 16.4545 6.06862 16.4545C6.90352 16.4545 7.63282 16.7152 8.25982 17.131C7.94632 18.0187 7.79122 18.9031 7.79122 19.8964C7.79122 20.4706 7.89682 21.0448 7.99912 21.619H3.46162C3.93022 22.51 4.92022 23.1865 6.06862 23.1865ZM6.06862 25.4305C6.85072 25.4305 7.58002 25.2226 8.25982 24.9091C9.51052 25.2226 10.7117 25.6912 11.2859 27.1531C10.8173 27.3082 9.51382 28.1431 9.20032 28.7173H0.329922C0.851322 26.8396 2.46832 25.2754 3.87742 24.9091C4.55392 25.2721 5.28652 25.4305 6.06862 25.4305ZM26.9312 24.127C25.9907 24.127 25.1591 23.7607 24.4793 23.2393C24.6344 22.9258 24.74 22.6123 24.8456 22.2493C25.367 22.8235 26.0963 23.137 26.9312 23.137C28.0796 23.137 29.0696 22.4605 29.5382 21.52H25.0007C25.1063 20.9458 25.2086 20.3716 25.2086 19.7974C25.2086 18.8074 25.0535 17.9197 24.74 17.032C25.367 16.6162 26.1491 16.3555 26.9312 16.3555C29.0696 16.3555 30.8417 18.0781 30.8417 20.2165C30.845 22.4044 29.0696 24.127 26.9312 24.127ZM16.4999 27.1498C12.431 27.1498 9.09142 23.863 9.09142 19.8469C9.09142 15.8308 12.3782 12.5473 16.4999 12.5473C20.5688 12.5473 23.9084 15.8341 23.9084 19.8502C23.9084 23.8663 20.5688 27.1498 16.4999 27.1498ZM11.804 22.4572C12.6917 24.2293 14.3087 25.0642 16.4999 25.0642C18.6911 25.0642 20.3081 24.2293 21.1958 22.4572H11.804ZM12.2231 28.4038C13.4738 29.0803 14.9357 29.2387 16.4999 29.2387C18.0641 29.2387 19.4732 29.0836 20.7767 28.4038C23.5421 29.1331 25.9412 30.8029 26.9312 34.456H6.06532C7.05862 30.8029 9.45772 29.1331 12.2231 28.4038ZM21.7172 27.1498C22.2914 25.6879 23.4893 25.2193 24.7433 24.9058C25.4198 25.2721 26.1524 25.4272 26.9345 25.4272C27.7166 25.4272 28.4987 25.2193 29.1257 24.9058C30.5315 25.2721 32.1485 26.8396 32.6699 28.7173H23.8028C23.4893 28.2982 22.1858 27.3082 21.7172 27.1498Z" fill="black"/>
<defs>
<linearGradient id="paint0_linear_0_1" x1="49.2907" y1="-43.2558" x2="21.8954" y2="21.9884" gradientUnits="userSpaceOnUse">
<stop stop-color="#C4C4C4"/>
<stop offset="1" stop-color="#C4C4C4" stop-opacity="0"/>
</linearGradient>
</defs>
</svg>
