<svg width="15" height="18" viewBox="0 0 15 18" fill="none" xmlns="http://www.w3.org/2000/svg">
<path d="M9.43155 18H2.78422C1.24896 18 0 16.7384 0 15.1875V5.66016C0 4.1093 1.24896 2.84766 2.78422 2.84766H9.43155C10.9668 2.84766 12.2158 4.1093 12.2158 5.66016V15.1875C12.2158 16.7384 10.9668 18 9.43155 18ZM2.78422 4.25391C2.01666 4.25391 1.39211 4.8848 1.39211 5.66016V15.1875C1.39211 15.9629 2.01666 16.5938 2.78422 16.5938H9.43155C10.1991 16.5938 10.8237 15.9629 10.8237 15.1875V5.66016C10.8237 4.8848 10.1991 4.25391 9.43155 4.25391H2.78422ZM15 13.4297V2.8125C15 1.26164 13.751 0 12.2158 0H4.48956C4.1051 0 3.7935 0.314758 3.7935 0.703125C3.7935 1.09149 4.1051 1.40625 4.48956 1.40625H12.2158C12.9833 1.40625 13.6079 2.03714 13.6079 2.8125V13.4297C13.6079 13.8181 13.9195 14.1328 14.3039 14.1328C14.6884 14.1328 15 13.8181 15 13.4297Z" fill="#989898"/>
</svg>
