<svg width="38" height="29" viewBox="0 0 38 29" fill="none" xmlns="http://www.w3.org/2000/svg">
<path d="M31.9881 3.1408C29.6447 2.06555 27.1317 1.27332 24.5041 0.819531C24.4563 0.81077 24.4084 0.832673 24.3838 0.876407C24.0606 1.45127 23.7026 2.20114 23.4519 2.79057C20.6259 2.36745 17.8142 2.36745 15.0462 2.79057C14.7954 2.18807 14.4244 1.45127 14.0997 0.876407C14.0751 0.834109 14.0273 0.812206 13.9794 0.819531C11.3534 1.27181 8.84039 2.06404 6.49542 3.1408C6.47509 3.14957 6.45772 3.16414 6.44615 3.1831C1.67952 10.3044 0.373673 17.2507 1.01424 24.1108C1.01712 24.1444 1.036 24.1765 1.06207 24.1969C4.20696 26.5064 7.2534 27.9085 10.2432 28.8379C10.291 28.8525 10.3417 28.835 10.3722 28.7956C11.0794 27.8298 11.7098 26.8114 12.2503 25.7405C12.2822 25.6778 12.2518 25.6034 12.1866 25.5785C11.1866 25.1992 10.2344 24.7367 9.31845 24.2115C9.24599 24.1692 9.24017 24.0656 9.30688 24.016C9.49963 23.8715 9.69245 23.7212 9.8765 23.5695C9.90982 23.5418 9.95621 23.536 9.99535 23.5534C16.0127 26.3008 22.5272 26.3008 28.4735 23.5534C28.5126 23.5345 28.559 23.5403 28.5938 23.568C28.7779 23.7197 28.9706 23.8715 29.1648 24.0159C29.2315 24.0655 29.2271 24.1691 29.1547 24.2114C28.2387 24.7469 27.2866 25.1991 26.2851 25.577C26.2199 25.6018 26.1909 25.6777 26.2229 25.7404C26.775 26.8098 27.4055 27.8282 28.0996 28.7941C28.1286 28.835 28.1808 28.8525 28.2286 28.8378C31.2329 27.9085 34.2793 26.5064 37.4242 24.1968C37.4518 24.1764 37.4692 24.1457 37.472 24.1122C38.2387 16.1811 36.188 9.29178 32.0358 3.18447C32.0258 3.16414 32.0084 3.14957 31.9881 3.1408ZM13.1491 19.9337C11.3375 19.9337 9.84469 18.2705 9.84469 16.2279C9.84469 14.1852 11.3084 12.5221 13.1491 12.5221C15.0041 12.5221 16.4824 14.1999 16.4534 16.2279C16.4534 18.2705 14.9896 19.9337 13.1491 19.9337ZM25.3664 19.9337C23.5548 19.9337 22.062 18.2705 22.062 16.2279C22.062 14.1852 23.5258 12.5221 25.3664 12.5221C27.2214 12.5221 28.6997 14.1999 28.6707 16.2279C28.6707 18.2705 27.2215 19.9337 25.3664 19.9337Z" fill="black"/>
</svg>
