<svg width="16" height="16" viewBox="0 0 16 16" fill="none" xmlns="http://www.w3.org/2000/svg">
<path fill-rule="evenodd" clip-rule="evenodd" d="M2.90119 2.06119C2.10005 2.06119 1.4506 2.71064 1.4506 3.51179V12.9407C1.4506 13.7418 2.10005 14.3913 2.90119 14.3913H12.3301C13.1312 14.3913 13.7807 13.7418 13.7807 12.9407V7.13828C13.7807 6.7377 14.1054 6.41298 14.506 6.41298C14.9065 6.41298 15.2313 6.7377 15.2313 7.13828V12.9407C15.2313 14.5429 13.9323 15.8418 12.3301 15.8418H2.90119C1.29891 15.8418 0 14.5429 0 12.9407V3.51179C0 1.9095 1.29891 0.610596 2.90119 0.610596H9.06622C9.46679 0.610596 9.79152 0.935323 9.79152 1.33589C9.79152 1.73646 9.46679 2.06119 9.06622 2.06119H2.90119Z" fill="black"/>
<path fill-rule="evenodd" clip-rule="evenodd" d="M14.8686 0.973224C15.4627 1.51072 15.5085 2.42804 14.971 3.02212L9.05392 9.56207L6.90259 9.6768V7.61563L12.8197 1.07567C13.3572 0.481593 14.2745 0.435727 14.8686 0.973224Z" fill="black"/>
</svg>
