<svg width="21" height="20" viewBox="0 0 21 20" fill="none" xmlns="http://www.w3.org/2000/svg">
<path d="M10.5192 0C4.98466 0 0.497925 4.48674 0.497925 10.0213C0.497925 14.9851 4.11079 19.096 8.84786 19.8921V12.112H6.43043V9.31226H8.84786V7.24785C8.84786 4.85254 10.3108 3.54724 12.4479 3.54724C13.4715 3.54724 14.3511 3.62351 14.6064 3.6571V6.16084L13.1242 6.16155C11.9622 6.16155 11.7382 6.71361 11.7382 7.524V9.31083H14.5108L14.1492 12.1106H11.7382V19.959C16.6964 19.3555 20.5404 15.1399 20.5404 10.0184C20.5404 4.48674 16.0536 0 10.5192 0Z" fill="#010002"/>
</svg>
