<svg width="22" height="22" viewBox="0 0 22 22" fill="none" xmlns="http://www.w3.org/2000/svg">
<path d="M6.875 0.25H15.125C18.7833 0.25 21.75 3.2167 21.75 6.875V15.125C21.75 18.7833 18.7833 21.75 15.125 21.75H6.875C3.2167 21.75 0.25 18.7833 0.25 15.125V6.875C0.25 3.2167 3.2167 0.25 6.875 0.25Z" fill="black" stroke="white" stroke-width="0.5"/>
<path d="M5.75 11C5.75 8.1007 8.1007 5.75 11 5.75C13.8993 5.75 16.25 8.1007 16.25 11C16.25 13.8993 13.8993 16.25 11 16.25C8.1007 16.25 5.75 13.8993 5.75 11ZM7.3125 11C7.3125 13.0328 8.96718 14.6875 11 14.6875C13.0328 14.6875 14.6875 13.0328 14.6875 11C14.6875 8.96574 13.0328 7.3125 11 7.3125C8.96724 7.3125 7.3125 8.96574 7.3125 11Z" fill="white" stroke="white" stroke-width="0.5"/>
<path d="M17 6C17.5523 6 18 5.55229 18 5C18 4.44772 17.5523 4 17 4C16.4477 4 16 4.44772 16 5C16 5.55229 16.4477 6 17 6Z" fill="white"/>
</svg>
