<svg width="39" height="43" viewBox="0 0 39 43" fill="none" xmlns="http://www.w3.org/2000/svg">
<circle cx="23.5" cy="15.5" r="15.5" fill="url(#paint0_linear_0_1)"/>
<path d="M20.4996 12H4.46838C2.00057 12 0 14.0006 0 16.4684V37.8204C0 40.2882 2.00057 42.2887 4.46838 42.2887H20.4996C22.9674 42.2887 24.968 40.2882 24.968 37.8204V16.4684C24.968 14.0006 22.9674 12 20.4996 12ZM8.79236 20.4521H16.1755C16.745 20.4517 17.207 20.913 17.2075 21.4825C17.208 22.052 16.7466 22.5141 16.1771 22.5145C16.1766 22.5145 16.1761 22.5145 16.1755 22.5145H8.79236C8.22287 22.5145 7.7612 22.0528 7.7612 21.4833C7.7612 20.9138 8.22287 20.4521 8.79236 20.4521ZM18.8325 33.8367H6.13543C5.56594 33.8367 5.10427 33.375 5.10427 32.8055C5.10427 32.236 5.56594 31.7743 6.13543 31.7743H18.8325C19.402 31.7743 19.8637 32.236 19.8637 32.8055C19.8637 33.375 19.402 33.8367 18.8325 33.8367ZM18.8325 28.1755H6.13543C5.56594 28.1755 5.10427 27.7139 5.10427 27.1444C5.10427 26.5749 5.56594 26.1132 6.13543 26.1132H18.8325C19.402 26.1132 19.8637 26.5749 19.8637 27.1444C19.8637 27.7139 19.402 28.1755 18.8325 28.1755Z" fill="black"/>
<defs>
<linearGradient id="paint0_linear_0_1" x1="47.2907" y1="-43.2558" x2="19.8954" y2="21.9884" gradientUnits="userSpaceOnUse">
<stop stop-color="#C4C4C4"/>
<stop offset="1" stop-color="#C4C4C4" stop-opacity="0"/>
</linearGradient>
</defs>
</svg>
