<svg width="42" height="43" viewBox="0 0 42 43" fill="none" xmlns="http://www.w3.org/2000/svg">
<circle cx="26.5" cy="15.5" r="15.5" fill="url(#paint0_linear_0_1)"/>
<path d="M17.8793 11.3277C18.7107 11.4566 19.3553 11.6436 20.0256 11.9658C20.7668 12.3139 21.1213 12.5588 21.682 13.0873C22.7197 14.0863 23.2031 15.0789 23.4609 16.7676C23.5318 17.2123 23.6156 17.7473 23.6543 17.96C23.6865 18.1727 23.7188 18.482 23.7188 18.6496C23.7188 18.8945 23.7445 18.959 23.8477 18.9912C23.9186 19.017 24.041 19.1523 24.1248 19.3006C24.2537 19.5455 24.2666 19.6615 24.2666 20.4736C24.2666 21.2986 24.2473 21.4275 24.0797 21.9496C23.867 22.6006 23.5898 23.0518 23.2869 23.2451C23.1387 23.3418 23.0291 23.5029 22.8809 23.8574C21.9012 26.1906 20.0965 28.2596 18.4336 28.9557C17.7568 29.2457 17.3057 29.3359 16.5967 29.3359C14.7275 29.3359 12.9293 28.1436 11.4469 25.9264C11.0666 25.3592 10.4736 24.2248 10.2803 23.7092C10.2094 23.5158 10.074 23.3289 9.92579 23.2129C9.42951 22.8197 9.0299 21.7691 8.97833 20.6928C8.93322 19.8678 9.02345 19.423 9.29415 19.1137C9.46818 18.9139 9.48107 18.8752 9.4424 18.5594C9.38439 18.0631 9.51974 16.6645 9.70021 15.9426C10.4608 12.9326 12.9873 11.1988 16.5645 11.2311C16.9705 11.2375 17.5635 11.2762 17.8793 11.3277ZM18.9686 17.2188C17.8664 17.5604 16.3647 17.6184 15.3141 17.3477C14.3666 17.1092 13.7092 17.193 12.6973 17.7021C12.3815 17.8633 12.1172 17.9664 12.1172 17.9342C12.1172 17.902 12.1623 17.773 12.2203 17.6377C12.5361 16.8836 11.8594 17.4379 11.4469 18.2758C11.3115 18.5529 11.1182 19.0299 11.0151 19.3393C10.841 19.8871 10.8346 19.8936 10.6219 19.8936C10.4414 19.8936 10.3899 19.9322 10.2932 20.1191C10.1256 20.4414 10.1707 21.5436 10.3705 22.0656C10.551 22.5361 10.8152 22.8262 11.0666 22.8262C11.2277 22.8262 11.26 22.8648 11.3695 23.1613C11.8014 24.3988 12.5813 25.6363 13.5287 26.5645C14.5342 27.557 15.3141 27.9631 16.3518 28.0275C17.0414 28.0727 17.5635 27.9695 18.2209 27.6537C19.684 26.9512 21.0053 25.3334 21.8109 23.2387C21.9785 22.8197 22.0043 22.7875 22.1461 22.8133C22.3652 22.852 22.5715 22.6457 22.7906 22.1623C22.9453 21.8143 22.9775 21.666 22.9969 21.0537C23.0098 20.4672 22.9969 20.3061 22.9002 20.1191C22.8035 19.9322 22.752 19.8936 22.5844 19.9C22.391 19.9129 22.3781 19.9 22.3008 19.5455C21.9141 17.7859 20.4445 16.7547 18.9686 17.2188Z" fill="black"/>
<path d="M22.0754 29.2715C22.2172 29.3037 22.823 29.3553 23.4289 29.4004C24.6342 29.4777 25.9039 29.7033 26.4969 29.9482C27.3734 30.3027 28.3789 31.1793 29.0234 32.1525C29.4488 32.7971 29.9838 33.9314 30.2996 34.8789C30.5445 35.6008 30.5703 35.749 30.5703 36.2969C30.5703 37.6117 29.9902 38.4174 28.5207 39.1328C26.7289 40.0029 24.0605 40.5379 20.0451 40.815C18.6723 40.9117 14.2508 40.9117 12.9231 40.815C8.14708 40.467 5.07911 39.7387 3.56446 38.5914C2.76524 37.9855 2.43009 37.3023 2.43009 36.2969C2.43009 35.749 2.45587 35.6008 2.70079 34.8789C3.57091 32.3201 4.86642 30.6379 6.49063 29.9547C7.07716 29.7098 8.34044 29.4777 9.53927 29.4004C10.5576 29.3359 10.925 29.2973 11.1635 29.2328C11.2408 29.207 11.3053 29.2779 11.3955 29.4906C11.7178 30.206 13.1035 31.9656 14.8631 33.867L15.2047 34.2344L15.2691 33.9959C15.3014 33.8605 15.4496 33.2934 15.5979 32.7262C15.8621 31.7078 15.8621 31.7078 15.7268 31.6111C15.5205 31.4693 15.3272 31.0246 15.2949 30.6121L15.2563 30.2383H16.5002H17.7441L17.7055 30.6121C17.6732 31.0117 17.4992 31.4178 17.2865 31.6111C17.1576 31.7271 17.1576 31.7336 17.4734 32.9582C17.6475 33.6414 17.7957 34.2021 17.8086 34.2086C17.8279 34.2279 19.3941 32.4748 20.0193 31.7207C20.7863 30.8055 21.2826 30.1158 21.5404 29.6195C21.6564 29.3939 21.766 29.2135 21.7854 29.2135C21.8047 29.2199 21.9336 29.2457 22.0754 29.2715Z" fill="black"/>
<defs>
<linearGradient id="paint0_linear_0_1" x1="50.2907" y1="-43.2558" x2="22.8954" y2="21.9884" gradientUnits="userSpaceOnUse">
<stop stop-color="#C4C4C4"/>
<stop offset="1" stop-color="#C4C4C4" stop-opacity="0"/>
</linearGradient>
</defs>
</svg>
