<svg width="215" height="215" viewBox="0 0 215 215" fill="none" xmlns="http://www.w3.org/2000/svg">
<mask id="mask0_1009_187" style="mask-type:alpha" maskUnits="userSpaceOnUse" x="0" y="0" width="215" height="215">
<rect width="215" height="215" fill="#F8F8F8"/>
</mask>
<g mask="url(#mask0_1009_187)">
<rect width="215" height="215" fill="#F8F8F8"/>
<circle cx="78.8821" cy="237.002" r="79.4" transform="rotate(-17.4905 78.8821 237.002)" stroke="black" stroke-width="0.2"/>
<rect x="39.2744" y="111.858" width="53.4454" height="54.2239" transform="rotate(-14.5851 39.2744 111.858)" fill="#F8F8F8"/>
<path d="M50.4033 152.822L50.2721 153.012L50.3319 153.236L51.9484 159.269C52.5914 161.668 55.0657 163.097 57.4653 162.454L99.2686 151.253C101.505 150.653 102.898 148.464 102.556 146.226L102.583 146.219L102.454 145.736L98.9604 132.698L98.9145 132.527L98.7708 132.423L84.8883 122.367C84.8882 122.367 84.8882 122.367 84.8882 122.367C84.3829 122.001 83.8649 122.042 83.6084 122.096L83.6083 122.096C83.3514 122.151 82.8624 122.326 82.551 122.866L70.6967 143.435C70.3837 143.978 69.7089 144.192 69.1398 143.931C69.1398 143.931 69.1397 143.931 69.1397 143.931L60.8035 140.095C60.0927 139.768 59.2522 139.998 58.8074 140.643L50.4033 152.822ZM96.7781 127.986L97.919 128.812L97.5544 127.452L91.2525 103.933C90.6096 101.533 88.1354 100.104 85.7357 100.747L43.9325 111.949C41.5329 112.592 40.1043 115.066 40.7473 117.465L49.1682 148.893L49.4483 149.938L50.0627 149.047L56.8121 139.266L56.4006 138.982L56.8121 139.266C57.9281 137.649 60.032 137.072 61.817 137.893L62.026 137.439L61.817 137.893L68.7342 141.075L69.1486 141.266L69.3763 140.871L80.4506 121.655L80.0174 121.406L80.4506 121.655C81.0197 120.668 81.9872 119.965 83.1017 119.725C84.2169 119.487 85.3868 119.734 86.3102 120.403L86.6035 119.998L86.3102 120.403L96.7781 127.986ZM43.305 109.607L85.1083 98.4057C88.7982 97.417 92.6055 99.6152 93.5942 103.305L104.795 145.108C105.784 148.798 103.586 152.606 99.896 153.594L58.0927 164.795C54.4028 165.784 50.5955 163.586 49.6068 159.896L38.4057 118.093C37.417 114.403 39.6151 110.596 43.305 109.607Z" fill="black" stroke="#F8F8F8"/>
<path d="M50.1716 123.202C49.0648 119.071 51.5253 114.809 55.6561 113.702C59.7868 112.595 64.0487 115.056 65.1555 119.187C66.2623 123.317 63.8017 127.579 59.671 128.686C55.5404 129.793 51.2784 127.332 50.1716 123.202ZM52.5132 122.574C53.2742 125.415 56.2032 127.106 59.0436 126.345C61.884 125.583 63.575 122.654 62.8139 119.814C62.0529 116.974 59.1239 115.283 56.2835 116.044C53.4431 116.805 51.7521 119.734 52.5132 122.574Z" fill="black" stroke="#F8F8F8"/>
<circle cx="-21.208" cy="54.1293" r="35.9" transform="rotate(-17.4905 -21.208 54.1293)" stroke="black" stroke-width="0.2"/>
<circle cx="53.1092" cy="73.6982" r="20.9" transform="rotate(-17.4905 53.1092 73.6982)" stroke="black" stroke-width="0.2"/>
<path d="M14.498 17.7143C45.6197 10.0043 114.511 13.3539 141.106 88.4322C174.348 182.28 162.48 221.144 250.673 243.155" stroke="black" stroke-width="0.2"/>
<path d="M32.4814 -5.07104C61.8478 -17.9402 130.312 -26.306 169.236 43.1841C217.892 130.047 212.777 170.359 303.424 177.117" stroke="black" stroke-width="0.2"/>
</g>
</svg>
