<svg width="215" height="215" viewBox="0 0 215 215" fill="none" xmlns="http://www.w3.org/2000/svg">
<mask id="mask0_1009_131" style="mask-type:alpha" maskUnits="userSpaceOnUse" x="0" y="0" width="215" height="215">
<rect width="215" height="215" fill="#F8F8F8"/>
</mask>
<g mask="url(#mask0_1009_131)">
<rect width="215" height="215" fill="#F8F8F8"/>
<circle cx="46.5" cy="218.5" r="79.4" stroke="black" stroke-width="0.2"/>
<circle cx="6" cy="14" r="35.9" stroke="black" stroke-width="0.2"/>
<circle cx="71" cy="55" r="20.9" stroke="black" stroke-width="0.2"/>
<path d="M56.2274 168.48L43.5234 116.007L126.928 154.672C108.148 159.274 69.4837 168.922 65.0649 170.69C60.6462 172.457 57.3321 169.953 56.2274 168.48Z" fill="#F8F8F8"/>
<path d="M43.143 114.896L113.232 97.0782C114.673 96.7139 116.199 96.9358 117.476 97.6952C118.753 98.4546 119.677 99.6896 120.045 101.129L123.961 116.534C124.026 116.788 123.987 117.057 123.853 117.282C123.719 117.508 123.501 117.67 123.247 117.735C122.993 117.8 122.724 117.761 122.499 117.627C122.274 117.493 122.111 117.275 122.046 117.021L118.13 101.616L118.13 101.616C117.892 100.684 117.294 99.884 116.467 99.3923C115.64 98.9007 114.652 98.7571 113.72 98.9931L113.719 98.9932L44.7812 116.519L44.5874 116.568L44.6366 116.762L57.6127 167.805L57.6128 167.805C57.8511 168.737 58.4491 169.536 59.2759 170.028C60.1026 170.519 61.0906 170.663 62.0231 170.427L62.0234 170.427L127.639 153.746L127.639 153.746C128.571 153.508 129.37 152.91 129.862 152.083C130.353 151.257 130.497 150.269 130.262 149.336L130.261 149.336L126.345 133.932C126.281 133.678 126.32 133.409 126.454 133.184C126.588 132.958 126.806 132.796 127.06 132.731C127.314 132.666 127.583 132.705 127.808 132.839C128.033 132.973 128.196 133.191 128.26 133.445L132.176 148.849C132.541 150.289 132.319 151.816 131.559 153.093C130.8 154.37 129.565 155.294 128.125 155.662L62.5104 172.342C61.0698 172.707 59.5435 172.485 58.2662 171.726C56.989 170.966 56.0652 169.731 55.6976 168.291L42.4289 116.097C42.3644 115.843 42.4033 115.574 42.5372 115.349C42.6712 115.124 42.8891 114.961 43.143 114.896Z" fill="black" stroke="#F8F8F8" stroke-width="0.4"/>
<path d="M128.861 132.272L128.861 132.272L129.581 131.048L126.265 118.004L126.265 118.004C126.199 117.747 126.034 117.527 125.807 117.391C125.579 117.256 125.307 117.216 125.05 117.28L125.05 117.28L111.567 120.713C111.567 120.713 111.567 120.713 111.567 120.713C110.583 120.963 109.658 121.404 108.845 122.012C108.031 122.62 107.346 123.382 106.827 124.255C106.308 125.127 105.966 126.094 105.82 127.098C105.675 128.103 105.729 129.127 105.979 130.111C106.229 131.095 106.671 132.02 107.278 132.834C107.886 133.647 108.648 134.333 109.521 134.852C110.393 135.371 111.36 135.713 112.365 135.858C113.369 136.004 114.393 135.95 115.377 135.7L128.861 132.272ZM129.346 134.182L115.863 137.61C113.368 138.244 110.723 137.861 108.51 136.546C106.297 135.23 104.697 133.089 104.063 130.593C103.428 128.098 103.811 125.453 105.127 123.24C106.443 121.027 108.584 119.427 111.079 118.793L124.563 115.365C125.328 115.172 126.138 115.29 126.816 115.694C127.494 116.097 127.985 116.753 128.18 117.517L131.496 130.562C131.691 131.327 131.573 132.138 131.17 132.817C130.767 133.496 130.111 133.987 129.346 134.182Z" fill="black" stroke="#F8F8F8" stroke-width="0.4"/>
<path d="M43.6295 116.811L43.6786 117.005L43.6293 116.811C43.4026 116.869 43.1629 116.844 42.9527 116.742C42.7426 116.639 42.5756 116.465 42.4815 116.251C42.3875 116.037 42.3724 115.796 42.439 115.572C42.5056 115.348 42.6496 115.155 42.8454 115.027L42.7361 114.86L42.8454 115.027L83.1269 88.6935L83.1269 88.6935C84.2512 87.9583 85.5347 87.502 86.8707 87.3627C88.2068 87.2234 89.5568 87.4051 90.8085 87.8926C92.0602 88.3801 93.1775 89.1594 94.0674 90.1657C94.9573 91.1719 95.5941 92.3761 95.9249 93.678L98.0308 101.962C98.0954 102.216 98.0564 102.485 97.9225 102.71C97.7886 102.936 97.5707 103.098 97.3167 103.163C97.0628 103.227 96.7936 103.189 96.5684 103.055C96.3432 102.921 96.1804 102.703 96.1158 102.449L94.0099 94.1649C93.7563 93.1678 93.2685 92.2457 92.5869 91.4751C91.9053 90.7046 91.0496 90.1078 90.091 89.7345C89.1323 89.3611 88.0984 89.222 87.0752 89.3286C86.052 89.4352 85.069 89.7845 84.2079 90.3474L43.9264 116.681L43.9261 116.681C43.8352 116.741 43.7349 116.785 43.6295 116.811Z" fill="black" stroke="#F8F8F8" stroke-width="0.4"/>
<path d="M114.924 132.027C114.145 132.225 113.325 132.188 112.567 131.919C111.809 131.651 111.147 131.164 110.666 130.519C110.185 129.875 109.906 129.103 109.863 128.3C109.821 127.497 110.018 126.699 110.429 126.008C110.84 125.317 111.447 124.763 112.173 124.417C112.899 124.071 113.711 123.947 114.507 124.062C115.302 124.178 116.046 124.526 116.644 125.064C117.242 125.602 117.666 126.305 117.864 127.085C118.129 128.13 117.968 129.238 117.417 130.164C116.866 131.091 115.969 131.761 114.924 132.027ZM113.408 126.062C113.007 126.164 112.646 126.383 112.369 126.69C112.093 126.997 111.914 127.38 111.854 127.789C111.795 128.198 111.859 128.616 112.037 128.989C112.215 129.362 112.5 129.674 112.855 129.885C113.211 130.096 113.621 130.197 114.034 130.175C114.447 130.153 114.844 130.009 115.175 129.762C115.506 129.514 115.756 129.174 115.894 128.784C116.031 128.394 116.05 127.972 115.948 127.572C115.811 127.035 115.467 126.574 114.991 126.291C114.514 126.008 113.945 125.926 113.408 126.062Z" fill="black" stroke="#F8F8F8" stroke-width="0.4"/>
<path d="M51 -10C83 -8 147.7 15.9 150.5 95.5C154 195 131 228.5 208.5 276" stroke="black" stroke-width="0.2"/>
<path d="M75 -26.327C106.876 -29.7752 174.689 -17.1775 190.929 60.7986C211.229 158.269 194.235 195.18 278.66 228.869" stroke="black" stroke-width="0.2"/>
</g>
</svg>
