<svg width="22" height="18" viewBox="0 0 22 18" fill="none" xmlns="http://www.w3.org/2000/svg">
<path d="M19.7395 4.48892C20.6342 3.84923 21.3868 3.05077 22 2.13138V2.13046C21.1814 2.49138 20.3106 2.73138 19.4013 2.84769C20.3363 2.28554 21.0503 1.40215 21.3858 0.337846C20.5141 0.861231 19.5516 1.23046 18.5258 1.43723C17.6981 0.549231 16.5183 0 15.2313 0C12.7343 0 10.7241 2.04092 10.7241 4.54246C10.7241 4.90246 10.7543 5.24862 10.8286 5.57815C7.07942 5.39354 3.76108 3.58431 1.53175 0.827077C1.14308 1.50738 0.913917 2.28554 0.913917 3.12277C0.913917 4.69569 1.71783 6.08954 2.91775 6.89723C2.19267 6.88338 1.48225 6.67108 0.88 6.33785V6.38769C0.88 8.59477 2.44292 10.428 4.4935 10.8508C4.12592 10.9523 3.72625 11.0003 3.311 11.0003C3.02225 11.0003 2.73075 10.9837 2.45758 10.9228C3.0415 12.7209 4.70067 14.0437 6.6715 14.0871C5.137 15.2954 3.18817 16.0237 1.07892 16.0237C0.7095 16.0237 0.35475 16.0071 0 15.9618C1.99833 17.2588 4.36517 18 6.919 18C14.8784 18 20.0658 11.3132 19.7395 4.48892Z" fill="black"/>
</svg>
