<svg width="25" height="27" viewBox="0 0 25 27" fill="none" xmlns="http://www.w3.org/2000/svg">
<path d="M11.4075 1.00077C11.8079 0.491197 12.5798 0.491197 12.9802 1.00077L18.1908 7.63246C18.7063 8.28859 18.2389 9.25028 17.4045 9.25028H6.98324C6.14881 9.25028 5.6814 8.28859 6.19693 7.63246L11.4075 1.00077Z" fill="#1E2125"/>
<rect x="10.2119" y="7.26807" width="3.9644" height="11.8932" fill="#1E2125"/>
<path fill-rule="evenodd" clip-rule="evenodd" d="M22.7052 12.1935C23.6341 12.1935 24.3871 12.9734 24.3871 13.9355V20.0323C24.3871 23.8804 21.3751 27 17.6596 27H6.72747C3.01199 27 0 23.8804 0 20.0323V14.8064C0 13.8444 0.752998 13.0645 1.68187 13.0645C2.61074 13.0645 3.36374 13.8444 3.36374 14.8064V20.0323C3.36374 21.9563 4.86973 23.5161 6.72747 23.5161H17.6596C19.5174 23.5161 21.0234 21.9563 21.0234 20.0323V13.9355C21.0234 12.9734 21.7764 12.1935 22.7052 12.1935Z" fill="#1E2125"/>
</svg>
