<svg width="46" height="43" viewBox="0 0 46 43" fill="none" xmlns="http://www.w3.org/2000/svg">
<circle cx="30.5" cy="15.5" r="15.5" fill="url(#paint0_linear_0_1)"/>
<path d="M2.65466 17.6939C2.97829 15.3973 4.03169 14.5306 6.23366 14.5306H26.0768C26.4034 14.5453 26.7117 14.685 26.9375 14.9208C27.1633 15.1565 27.2892 15.47 27.2888 15.7959V17.6939H2.65466ZM29.8271 17.7508V15.7959C29.8272 14.799 29.4339 13.842 28.7322 13.1317C28.0305 12.4215 27.0767 12.015 26.0768 12H6.23366C0.712864 12 0.0846355 16.4855 0.0021409 18.8137C-0.000713633 18.8368 -0.000713633 18.8602 0.0021409 18.8833C0.0021409 18.8833 0.0021409 18.9592 0.0021409 18.9592V39.2041C0.0021409 40.2108 0.403281 41.1763 1.11732 41.8882C1.83135 42.6001 2.79979 43 3.80959 43H29.1926C30.2024 43 31.1708 42.6001 31.8848 41.8882C32.5989 41.1763 33 40.2108 33 39.2041V21.4898C32.9991 20.5934 32.68 19.7263 32.0993 19.0419C31.5186 18.3576 30.7137 17.9002 29.8271 17.7508V17.7508ZM25.7024 33.5102C25.1376 33.5102 24.5855 33.3432 24.1159 33.0304C23.6463 32.7176 23.2803 32.273 23.0642 31.7527C22.848 31.2325 22.7915 30.6601 22.9017 30.1079C23.0119 29.5556 23.2838 29.0483 23.6832 28.6502C24.0826 28.252 24.5914 27.9809 25.1453 27.871C25.6992 27.7612 26.2734 27.8176 26.7952 28.033C27.317 28.2485 27.763 28.6134 28.0767 29.0816C28.3905 29.5498 28.558 30.1002 28.558 30.6633C28.5588 31.0374 28.4855 31.4079 28.3423 31.7537C28.1991 32.0995 27.9888 32.4137 27.7235 32.6782C27.4581 32.9427 27.143 33.1524 26.7962 33.2952C26.4493 33.438 26.0776 33.511 25.7024 33.5102Z" fill="black"/>
<defs>
<linearGradient id="paint0_linear_0_1" x1="54.2907" y1="-43.2558" x2="26.8954" y2="21.9884" gradientUnits="userSpaceOnUse">
<stop stop-color="#C4C4C4"/>
<stop offset="1" stop-color="#C4C4C4" stop-opacity="0"/>
</linearGradient>
</defs>
</svg>
