<svg width="197" height="32" viewBox="0 0 197 32" fill="none" xmlns="http://www.w3.org/2000/svg">
<path d="M40.6765 8.06233C42.4155 8.06233 43.8512 8.49372 44.9836 9.3565C46.116 10.2058 46.8979 11.3719 47.3293 12.8548H45.3881C45.0241 11.9111 44.4377 11.163 43.6288 10.6102C42.82 10.044 41.8291 9.76093 40.6563 9.76093C39.7261 9.76093 38.8903 9.99011 38.1488 10.4485C37.4208 10.8933 36.8411 11.5404 36.4098 12.3897C35.9918 13.2255 35.7829 14.2096 35.7829 15.342C35.7829 16.461 35.9918 17.4383 36.4098 18.2742C36.8411 19.11 37.4208 19.7571 38.1488 20.2154C38.8903 20.6603 39.7261 20.8827 40.6563 20.8827C41.8291 20.8827 42.82 20.6064 43.6288 20.0536C44.4377 19.4874 45.0241 18.7325 45.3881 17.7888H47.3293C46.8979 19.2717 46.116 20.4446 44.9836 21.3074C43.8512 22.1567 42.4155 22.5813 40.6765 22.5813C39.3419 22.5813 38.1623 22.278 37.1377 21.6714C36.1132 21.0512 35.3111 20.1952 34.7314 19.1032C34.1652 17.9978 33.8821 16.7441 33.8821 15.342C33.8821 13.9265 34.1652 12.6661 34.7314 11.5606C35.3111 10.4552 36.1132 9.59916 37.1377 8.99252C38.1623 8.37239 39.3419 8.06233 40.6765 8.06233Z" fill="#828282"/>
<path d="M51.6303 13.603C51.9943 12.8346 52.5268 12.2414 53.2278 11.8235C53.9288 11.3921 54.7647 11.1764 55.7353 11.1764V13.1784H55.1691C54.1311 13.1784 53.2817 13.448 52.6212 13.9872C51.9606 14.513 51.6303 15.3892 51.6303 16.616V22.46H49.7902V11.3584H51.6303V13.603Z" fill="#828282"/>
<path d="M58.3194 11.3584L61.9188 20.0941L65.2553 11.3584H67.2977L60.7055 27.7176H58.6227L60.9279 22.278L56.2568 11.3584H58.3194Z" fill="#828282"/>
<path d="M75.1118 11.2169C76.0959 11.2169 76.9722 11.4461 77.7406 11.9044C78.509 12.3628 79.1089 13.0233 79.5403 13.8861C79.9852 14.7489 80.2076 15.76 80.2076 16.9193C80.2076 18.0787 79.9852 19.0898 79.5403 19.9525C79.1089 20.8018 78.509 21.4557 77.7406 21.914C76.9722 22.3724 76.0959 22.6015 75.1118 22.6015C74.0334 22.6015 73.1167 22.3319 72.3617 21.7927C71.6203 21.24 71.108 20.5187 70.8249 19.629V27.7176H68.9847V11.3584H70.8249V14.1894C71.108 13.2997 71.6203 12.5852 72.3617 12.046C73.1167 11.4932 74.0334 11.2169 75.1118 11.2169ZM74.5861 12.8548C73.8716 12.8548 73.2245 13.0233 72.6448 13.3603C72.0651 13.6839 71.6135 14.1557 71.29 14.7758C70.9664 15.396 70.8047 16.1105 70.8047 16.9193C70.8047 17.7282 70.9664 18.4427 71.29 19.0628C71.6135 19.6694 72.0651 20.1413 72.6448 20.4783C73.2245 20.8153 73.8716 20.9838 74.5861 20.9838C75.732 20.9838 76.6419 20.6266 77.316 19.9121C78.0035 19.1841 78.3473 18.1865 78.3473 16.9193C78.3473 15.6521 78.0035 14.6613 77.316 13.9468C76.6419 13.2188 75.732 12.8548 74.5861 12.8548Z" fill="#828282"/>
<path d="M87.9085 20.8423V22.46H86.5335C85.4011 22.46 84.5518 22.1904 83.9856 21.6511C83.4328 21.1119 83.1565 20.2087 83.1565 18.9415V12.9559H81.4983V11.3584H83.1565V8.58809H85.0169V11.3584H87.8883V12.9559H85.0169V18.9819C85.0169 19.6964 85.1449 20.1884 85.4011 20.4581C85.6707 20.7142 86.129 20.8423 86.7761 20.8423H87.9085Z" fill="#828282"/>
<path d="M95.1892 11.2169C96.2542 11.2169 97.2046 11.4461 98.0404 11.9044C98.8897 12.3628 99.5503 13.0233 100.022 13.8861C100.507 14.7489 100.75 15.76 100.75 16.9193C100.75 18.0787 100.507 19.0898 100.022 19.9525C99.5503 20.8018 98.8897 21.4557 98.0404 21.914C97.2046 22.3724 96.2542 22.6015 95.1892 22.6015C94.1242 22.6015 93.167 22.3724 92.3177 21.914C91.4819 21.4557 90.8214 20.8018 90.336 19.9525C89.8507 19.0898 89.6081 18.0787 89.6081 16.9193C89.6081 15.76 89.8507 14.7489 90.336 13.8861C90.8214 13.0233 91.4819 12.3628 92.3177 11.9044C93.167 11.4461 94.1242 11.2169 95.1892 11.2169ZM95.1892 12.8346C94.5286 12.8346 93.9152 12.9829 93.349 13.2795C92.7963 13.576 92.3447 14.0344 91.9942 14.6545C91.6572 15.2612 91.4887 16.0161 91.4887 16.9193C91.4887 17.8091 91.6572 18.564 91.9942 19.1841C92.3447 19.7908 92.7963 20.2424 93.349 20.539C93.9152 20.8355 94.5286 20.9838 95.1892 20.9838C95.8498 20.9838 96.4564 20.8355 97.0091 20.539C97.5753 20.2424 98.0269 19.7908 98.364 19.1841C98.7145 18.564 98.8897 17.8091 98.8897 16.9193C98.8897 16.0161 98.7145 15.2612 98.364 14.6545C98.0269 14.0344 97.5753 13.576 97.0091 13.2795C96.4564 12.9829 95.8498 12.8346 95.1892 12.8346Z" fill="#828282"/>
<path d="M103.755 7.67813L102.258 7.41525V6.32329L105.999 5.87842H106.04L106.586 6.26262V21.0849L108.062 21.2467V22.46H102.339V21.2467L103.755 21.0647V7.67813Z" fill="#828282"/>
<path d="M111.86 9.37673C111.375 9.37673 110.991 9.23518 110.708 8.95208C110.424 8.66898 110.283 8.30499 110.283 7.86012C110.283 7.34784 110.445 6.92319 110.768 6.58617C111.092 6.24914 111.523 6.08063 112.062 6.08063C112.602 6.08063 113.013 6.22892 113.296 6.5255C113.579 6.8086 113.721 7.16585 113.721 7.59724C113.721 8.13648 113.559 8.56787 113.235 8.89141C112.912 9.21495 112.46 9.37673 111.88 9.37673H111.86ZM110.788 13.1379L109.353 12.7537V11.3989L113.053 10.954H113.094L113.66 11.3584V21.0849L115.015 21.2467V22.46H109.373V21.2467L110.788 21.0647V13.1379Z" fill="#828282"/>
<path d="M119.861 22.642C119.012 22.642 118.385 22.4465 117.981 22.0556C117.576 21.6646 117.374 21.0445 117.374 20.1952V12.7739H116.06V11.7224C116.168 11.682 116.363 11.6146 116.646 11.5202C116.929 11.4123 117.145 11.3247 117.293 11.2573C117.522 11.0821 117.718 10.7787 117.88 10.3474C118.001 10.0643 118.223 9.36324 118.547 8.24433H120.165L120.246 11.2169H123.339V12.7739H120.266V18.4561C120.266 19.2111 120.286 19.7436 120.326 20.0536C120.367 20.3637 120.455 20.5659 120.589 20.6603C120.724 20.7412 120.96 20.7816 121.297 20.7816C121.634 20.7816 121.985 20.7479 122.349 20.6805C122.713 20.5996 123.016 20.5052 123.259 20.3974L123.643 21.5298C123.265 21.8129 122.713 22.069 121.985 22.2982C121.257 22.5274 120.549 22.642 119.861 22.642Z" fill="#828282"/>
<path d="M129.814 22.6824C128.035 22.6824 126.707 22.1634 125.831 21.1254C124.968 20.0739 124.537 18.6449 124.537 16.8384C124.537 15.6251 124.759 14.5736 125.204 13.6839C125.662 12.7941 126.303 12.1134 127.125 11.6415C127.947 11.1697 128.898 10.9338 129.976 10.9338C131.324 10.9338 132.362 11.291 133.09 12.0055C133.818 12.7065 134.196 13.7109 134.223 15.0185C134.223 15.9082 134.169 16.5688 134.061 17.0002H127.489C127.543 18.227 127.833 19.1841 128.358 19.8716C128.884 20.5457 129.632 20.8827 130.603 20.8827C131.129 20.8827 131.668 20.7951 132.221 20.6198C132.787 20.4446 133.232 20.2356 133.555 19.993L134.061 21.1052C133.697 21.4961 133.104 21.8601 132.281 22.1971C131.473 22.5207 130.65 22.6824 129.814 22.6824ZM131.392 15.7869C131.419 15.4095 131.432 15.1196 131.432 14.9174C131.432 13.1244 130.832 12.2279 129.632 12.2279C128.972 12.2279 128.46 12.4908 128.096 13.0166C127.732 13.5423 127.529 14.4658 127.489 15.7869H131.392Z" fill="#828282"/>
<path d="M135.836 21.2669L137.171 21.1052V13.1379L135.877 12.7739V11.3786L139.011 10.954H139.072L139.577 11.3584V11.8033L139.517 13.4412H139.577C139.672 13.1716 139.894 12.8413 140.245 12.4504C140.595 12.046 141.033 11.6954 141.559 11.3989C142.098 11.0888 142.678 10.9338 143.298 10.9338C143.595 10.9338 143.851 10.9742 144.067 11.0551V14.0883C143.662 13.8052 143.17 13.6637 142.59 13.6637C141.606 13.6637 140.75 13.9265 140.022 14.4523V21.0849L142.368 21.2669V22.46H135.836V21.2669Z" fill="#828282"/>
<path d="M145.132 19.3054C145.132 18.0787 145.746 17.1552 146.972 16.5351C148.213 15.915 149.81 15.5982 151.765 15.5847V15.1196C151.765 14.5669 151.704 14.1355 151.583 13.8254C151.475 13.5154 151.266 13.2862 150.956 13.1379C150.66 12.9761 150.221 12.8953 149.642 12.8953C148.981 12.8953 148.388 12.9829 147.862 13.1581C147.336 13.3199 146.79 13.5356 146.224 13.8052L145.597 12.511C145.8 12.3358 146.137 12.1268 146.608 11.8842C147.094 11.6415 147.667 11.4326 148.327 11.2573C148.988 11.0686 149.669 10.9742 150.37 10.9742C151.408 10.9742 152.217 11.109 152.796 11.3786C153.389 11.6483 153.814 12.0797 154.07 12.6728C154.326 13.266 154.454 14.0614 154.454 15.0589V21.2467H155.546V22.3791C155.277 22.4465 154.893 22.5139 154.394 22.5813C153.895 22.6487 153.457 22.6824 153.079 22.6824C152.621 22.6824 152.311 22.615 152.149 22.4802C152.001 22.3454 151.927 22.069 151.927 21.6511V21.1052C151.563 21.5096 151.091 21.8736 150.511 22.1971C149.932 22.5207 149.278 22.6824 148.55 22.6824C147.93 22.6824 147.357 22.5544 146.831 22.2982C146.319 22.0286 145.907 21.6444 145.597 21.1456C145.287 20.6333 145.132 20.0199 145.132 19.3054ZM149.844 21.004C150.127 21.004 150.451 20.9232 150.815 20.7614C151.179 20.5861 151.495 20.3772 151.765 20.1345V16.8182C150.552 16.8182 149.642 17.0272 149.035 17.4451C148.442 17.8495 148.145 18.3753 148.145 19.0223C148.145 19.6694 148.294 20.1615 148.59 20.4985C148.9 20.8355 149.318 21.004 149.844 21.004Z" fill="#828282"/>
<path d="M160.206 22.642C159.356 22.642 158.729 22.4465 158.325 22.0556C157.92 21.6646 157.718 21.0445 157.718 20.1952V12.7739H156.404V11.7224C156.512 11.682 156.707 11.6146 156.99 11.5202C157.273 11.4123 157.489 11.3247 157.637 11.2573C157.867 11.0821 158.062 10.7787 158.224 10.3474C158.345 10.0643 158.568 9.36324 158.891 8.24433H160.509L160.59 11.2169H163.684V12.7739H160.61V18.4561C160.61 19.2111 160.63 19.7436 160.671 20.0536C160.711 20.3637 160.799 20.5659 160.933 20.6603C161.068 20.7412 161.304 20.7816 161.641 20.7816C161.978 20.7816 162.329 20.7479 162.693 20.6805C163.057 20.5996 163.36 20.5052 163.603 20.3974L163.987 21.5298C163.609 21.8129 163.057 22.069 162.329 22.2982C161.601 22.5274 160.893 22.642 160.206 22.642Z" fill="#828282"/>
<path d="M174.183 22.6622C173.738 22.6622 173.414 22.5678 173.212 22.3791C173.01 22.1904 172.909 21.9073 172.909 21.5298V20.9838C172.545 21.4287 172.032 21.8264 171.372 22.1769C170.711 22.5139 170.051 22.6824 169.39 22.6824C168.096 22.6824 167.173 22.3521 166.62 21.6916C166.067 21.0175 165.791 19.9121 165.791 18.3753V12.6728L164.78 12.3897V11.2371L168.217 10.9742H168.238L168.642 11.2573V18.3753C168.642 19.3594 168.763 20.0469 169.006 20.4378C169.249 20.8288 169.7 21.0243 170.361 21.0243C171.156 21.0243 171.898 20.7142 172.585 20.0941V12.6728L171.23 12.3695V11.2371L174.89 10.9742H174.931L175.416 11.2573V21.2063H176.549L176.528 22.3589C176.474 22.3724 176.225 22.4263 175.78 22.5207C175.335 22.615 174.803 22.6622 174.183 22.6622Z" fill="#828282"/>
<path d="M177.978 21.2669L179.312 21.1052V13.1379L178.018 12.7739V11.3786L181.152 10.954H181.213L181.719 11.3584V11.8033L181.658 13.4412H181.719C181.813 13.1716 182.035 12.8413 182.386 12.4504C182.736 12.046 183.175 11.6954 183.7 11.3989C184.24 11.0888 184.819 10.9338 185.439 10.9338C185.736 10.9338 185.992 10.9742 186.208 11.0551V14.0883C185.803 13.8052 185.311 13.6637 184.732 13.6637C183.747 13.6637 182.891 13.9265 182.163 14.4523V21.0849L184.509 21.2669V22.46H177.978V21.2669Z" fill="#828282"/>
<path d="M192.592 22.6824C190.812 22.6824 189.484 22.1634 188.608 21.1254C187.745 20.0739 187.314 18.6449 187.314 16.8384C187.314 15.6251 187.536 14.5736 187.981 13.6839C188.44 12.7941 189.08 12.1134 189.902 11.6415C190.725 11.1697 191.675 10.9338 192.753 10.9338C194.102 10.9338 195.14 11.291 195.868 12.0055C196.596 12.7065 196.973 13.7109 197 15.0185C197 15.9082 196.946 16.5688 196.838 17.0002H190.266C190.32 18.227 190.61 19.1841 191.136 19.8716C191.662 20.5457 192.41 20.8827 193.38 20.8827C193.906 20.8827 194.445 20.7951 194.998 20.6198C195.564 20.4446 196.009 20.2356 196.333 19.993L196.838 21.1052C196.474 21.4961 195.881 21.8601 195.059 22.1971C194.25 22.5207 193.428 22.6824 192.592 22.6824ZM194.169 15.7869C194.196 15.4095 194.209 15.1196 194.209 14.9174C194.209 13.1244 193.61 12.2279 192.41 12.2279C191.749 12.2279 191.237 12.4908 190.873 13.0166C190.509 13.5423 190.307 14.4658 190.266 15.7869H194.169Z" fill="#828282"/>
<path d="M20.9854 8.75424L14.0016 5.56945C13.9913 5.56478 13.9829 5.55751 13.9728 5.55274L9.31185 10.5597C9.2053 10.6742 9.14406 10.8244 9.14054 10.9811L8.82717 24.6246L13.3886 14.6219C13.1889 14.4294 13.0241 14.1958 12.9207 13.9191C12.5504 12.9279 13.0555 11.8202 14.0467 11.4499C15.038 11.0796 16.1456 11.5847 16.5159 12.5759C16.8862 13.5671 16.3812 14.6748 15.3899 15.0451C15.1132 15.1485 14.8287 15.1772 14.5525 15.1526L9.99103 25.1554L20.0869 15.9729C20.2029 15.8676 20.2762 15.7228 20.2928 15.5673L21.017 8.7651C21.0068 8.76062 20.9957 8.75896 20.9854 8.75424Z" fill="#828282"/>
<path fill-rule="evenodd" clip-rule="evenodd" d="M13.8269 0L26.5425 5.72574L22.6848 7.99369L13.8269 4.13566L3.77098 8.66377V22.6016L13.8269 27.6149L22.6848 23.3223L26.6096 25.4558L13.8269 31.8285L0 24.9352V6.22616L13.8269 0Z" fill="#828282"/>
</svg>
