<svg width="237" height="37" viewBox="0 0 237 37" fill="none" xmlns="http://www.w3.org/2000/svg">
<path d="M47.0878 9.33307C49.1009 9.33307 50.7629 9.83245 52.0738 10.8312C53.3847 11.8144 54.2898 13.1643 54.7892 14.8809H52.542C52.1206 13.7885 51.4418 12.9224 50.5054 12.2826C49.5691 11.6271 48.422 11.2994 47.0643 11.2994C45.9875 11.2994 45.02 11.5647 44.1617 12.0953C43.319 12.6103 42.6479 13.3594 42.1485 14.3425C41.6648 15.3101 41.4229 16.4493 41.4229 17.7602C41.4229 19.0554 41.6648 20.1869 42.1485 21.1544C42.6479 22.122 43.319 22.871 44.1617 23.4016C45.02 23.9166 45.9875 24.1741 47.0643 24.1741C48.422 24.1741 49.5691 23.8542 50.5054 23.2144C51.4418 22.5589 52.1206 21.685 52.542 20.5926H54.7892C54.2898 22.3092 53.3847 23.6669 52.0738 24.6657C50.7629 25.6489 49.1009 26.1405 47.0878 26.1405C45.5428 26.1405 44.1773 25.7893 42.9912 25.0871C41.8052 24.3692 40.8767 23.3782 40.2056 22.1142C39.5502 20.8345 39.2225 19.3832 39.2225 17.7602C39.2225 16.1216 39.5502 14.6624 40.2056 13.3828C40.8767 12.1031 41.8052 11.1121 42.9912 10.4099C44.1773 9.692 45.5428 9.33307 47.0878 9.33307ZM59.7681 15.747C60.1894 14.8575 60.8059 14.1708 61.6174 13.6871C62.4289 13.1877 63.3964 12.938 64.52 12.938V15.2554H63.8646C62.663 15.2554 61.6798 15.5676 60.9151 16.1918C60.1504 16.8004 59.7681 17.8148 59.7681 19.2349V26H57.6379V13.1487H59.7681V15.747ZM67.5114 13.1487L71.6781 23.2612L75.5406 13.1487H77.9048L70.2736 32.0862H67.8625L70.5311 25.7893L65.1237 13.1487H67.5114ZM86.9506 12.9848C88.0898 12.9848 89.1042 13.2501 89.9937 13.7807C90.8832 14.3113 91.5777 15.076 92.0771 16.0747C92.5921 17.0735 92.8496 18.2439 92.8496 19.586C92.8496 20.9281 92.5921 22.0986 92.0771 23.0973C91.5777 24.0805 90.8832 24.8374 89.9937 25.368C89.1042 25.8986 88.0898 26.1639 86.9506 26.1639C85.7021 26.1639 84.641 25.8517 83.767 25.2275C82.9087 24.5877 82.3157 23.7528 81.988 22.7228V32.0862H79.8578V13.1487H81.988V16.4259C82.3157 15.3959 82.9087 14.5688 83.767 13.9446C84.641 13.3047 85.7021 12.9848 86.9506 12.9848ZM86.342 14.8809C85.5149 14.8809 84.7658 15.076 84.0948 15.4661C83.4237 15.8407 82.9009 16.3869 82.5264 17.1047C82.1518 17.8226 81.9646 18.6497 81.9646 19.586C81.9646 20.5224 82.1518 21.3495 82.5264 22.0674C82.9009 22.7696 83.4237 23.3158 84.0948 23.706C84.7658 24.0961 85.5149 24.2912 86.342 24.2912C87.6685 24.2912 88.7219 23.8776 89.5021 23.0505C90.298 22.2078 90.696 21.053 90.696 19.586C90.696 18.1191 90.298 16.9721 89.5021 16.145C88.7219 15.3023 87.6685 14.8809 86.342 14.8809ZM101.764 24.1273V26H100.172C98.8616 26 97.8784 25.6879 97.223 25.0637C96.5831 24.4394 96.2632 23.3938 96.2632 21.9269V14.998H94.3437V13.1487H96.2632V9.94169H98.4168V13.1487H101.741V14.998H98.4168V21.9737C98.4168 22.8008 98.5651 23.3704 98.8616 23.6825C99.1737 23.9791 99.7043 24.1273 100.453 24.1273H101.764ZM110.192 12.9848C111.425 12.9848 112.525 13.2501 113.493 13.7807C114.476 14.3113 115.241 15.076 115.787 16.0747C116.349 17.0735 116.63 18.2439 116.63 19.586C116.63 20.9281 116.349 22.0986 115.787 23.0973C115.241 24.0805 114.476 24.8374 113.493 25.368C112.525 25.8986 111.425 26.1639 110.192 26.1639C108.96 26.1639 107.852 25.8986 106.868 25.368C105.901 24.8374 105.136 24.0805 104.574 23.0973C104.013 22.0986 103.732 20.9281 103.732 19.586C103.732 18.2439 104.013 17.0735 104.574 16.0747C105.136 15.076 105.901 14.3113 106.868 13.7807C107.852 13.2501 108.96 12.9848 110.192 12.9848ZM110.192 14.8575C109.428 14.8575 108.718 15.0292 108.062 15.3725C107.422 15.7158 106.9 16.2464 106.494 16.9643C106.104 17.6665 105.909 18.5405 105.909 19.586C105.909 20.616 106.104 21.4899 106.494 22.2078C106.9 22.9101 107.422 23.4329 108.062 23.7762C108.718 24.1195 109.428 24.2912 110.192 24.2912C110.957 24.2912 111.659 24.1195 112.299 23.7762C112.955 23.4329 113.477 22.9101 113.868 22.2078C114.273 21.4899 114.476 20.616 114.476 19.586C114.476 18.5405 114.273 17.6665 113.868 16.9643C113.477 16.2464 112.955 15.7158 112.299 15.3725C111.659 15.0292 110.957 14.8575 110.192 14.8575ZM120.108 8.88831L118.376 8.584V7.31993L122.706 6.80494H122.753L123.385 7.2497V24.4082L125.094 24.5955V26H118.469V24.5955L120.108 24.3848V8.88831ZM129.491 10.8546C128.929 10.8546 128.484 10.6908 128.157 10.363C127.829 10.0353 127.665 9.61397 127.665 9.09898C127.665 8.50597 127.852 8.01439 128.227 7.62424C128.601 7.2341 129.101 7.03903 129.725 7.03903C130.349 7.03903 130.825 7.21069 131.153 7.55402C131.481 7.88174 131.645 8.29529 131.645 8.79467C131.645 9.4189 131.457 9.91829 131.083 10.2928C130.708 10.6674 130.185 10.8546 129.514 10.8546H129.491ZM128.25 15.2086L126.588 14.7639V13.1955L130.872 12.6805H130.919L131.574 13.1487V24.4082L133.143 24.5955V26H126.612V24.5955L128.25 24.3848V15.2086ZM138.753 26.2107C137.77 26.2107 137.044 25.9844 136.576 25.5318C136.108 25.0793 135.874 24.3614 135.874 23.3782V14.7873H134.352V13.57C134.477 13.5232 134.704 13.4452 135.031 13.3359C135.359 13.2111 135.609 13.1097 135.78 13.0316C136.046 12.8288 136.272 12.4776 136.459 11.9782C136.6 11.6505 136.857 10.839 137.232 9.54375H139.104L139.198 12.9848H142.78V14.7873H139.221V21.3651C139.221 22.239 139.245 22.8554 139.292 23.2144C139.339 23.5733 139.44 23.8074 139.596 23.9166C139.752 24.0103 140.025 24.0571 140.415 24.0571C140.805 24.0571 141.211 24.0181 141.633 23.94C142.054 23.8464 142.405 23.7372 142.686 23.6123L143.131 24.9232C142.694 25.2509 142.054 25.5474 141.211 25.8127C140.368 26.078 139.549 26.2107 138.753 26.2107ZM150.275 26.2575C148.215 26.2575 146.678 25.6567 145.664 24.455C144.665 23.2378 144.165 21.5836 144.165 19.4924C144.165 18.0879 144.423 16.8706 144.938 15.8407C145.469 14.8107 146.21 14.0226 147.162 13.4764C148.114 12.9302 149.214 12.6571 150.462 12.6571C152.023 12.6571 153.225 13.0706 154.067 13.8977C154.91 14.7092 155.347 15.8719 155.378 17.3856C155.378 18.4156 155.316 19.1803 155.191 19.6797H147.583C147.646 21.0998 147.981 22.2078 148.59 23.0037C149.198 23.784 150.064 24.1741 151.188 24.1741C151.797 24.1741 152.421 24.0727 153.061 23.8698C153.716 23.6669 154.231 23.4251 154.606 23.1441L155.191 24.4316C154.77 24.8842 154.083 25.3055 153.131 25.6957C152.195 26.0702 151.243 26.2575 150.275 26.2575ZM152.101 18.2752C152.132 17.8382 152.148 17.5027 152.148 17.2686C152.148 15.193 151.453 14.1552 150.064 14.1552C149.3 14.1552 148.707 14.4596 148.285 15.0682C147.864 15.6768 147.63 16.7458 147.583 18.2752H152.101ZM157.246 24.6189L158.791 24.4316V15.2086L157.293 14.7873V13.1721L160.921 12.6805H160.992L161.577 13.1487V13.6637L161.507 15.5598H161.577C161.686 15.2476 161.944 14.8653 162.349 14.4127C162.755 13.9446 163.262 13.5388 163.871 13.1955C164.495 12.8366 165.166 12.6571 165.884 12.6571C166.227 12.6571 166.524 12.7039 166.774 12.7975V16.3088C166.305 15.9811 165.736 15.8173 165.065 15.8173C163.926 15.8173 162.935 16.1216 162.092 16.7302V24.4082L164.807 24.6189V26H157.246V24.6189ZM168.007 22.3483C168.007 20.9281 168.717 19.8591 170.137 19.1413C171.573 18.4234 173.422 18.0567 175.685 18.0411V17.5027C175.685 16.8628 175.615 16.3635 175.475 16.0045C175.35 15.6456 175.108 15.3803 174.749 15.2086C174.406 15.0214 173.898 14.9277 173.227 14.9277C172.463 14.9277 171.776 15.0292 171.167 15.232C170.559 15.4193 169.927 15.669 169.271 15.9811L168.546 14.483C168.78 14.2801 169.17 14.0382 169.716 13.7573C170.278 13.4764 170.941 13.2345 171.706 13.0316C172.471 12.8132 173.259 12.7039 174.07 12.7039C175.272 12.7039 176.208 12.86 176.879 13.1721C177.566 13.4842 178.057 13.9836 178.354 14.6702C178.65 15.3569 178.799 16.2776 178.799 17.4324V24.5955H180.063V25.9064C179.751 25.9844 179.306 26.0624 178.728 26.1405C178.151 26.2185 177.644 26.2575 177.207 26.2575C176.676 26.2575 176.317 26.1795 176.13 26.0234C175.958 25.8674 175.873 25.5474 175.873 25.0637V24.4316C175.451 24.8998 174.905 25.3212 174.234 25.6957C173.563 26.0702 172.806 26.2575 171.963 26.2575C171.245 26.2575 170.582 26.1092 169.974 25.8127C169.381 25.5006 168.905 25.0559 168.546 24.4784C168.187 23.8854 168.007 23.1754 168.007 22.3483ZM173.461 24.3146C173.789 24.3146 174.164 24.2209 174.585 24.0337C175.006 23.8308 175.373 23.5889 175.685 23.308V19.469C174.281 19.469 173.227 19.7109 172.525 20.1947C171.838 20.6628 171.495 21.2715 171.495 22.0205C171.495 22.7696 171.667 23.3392 172.01 23.7294C172.369 24.1195 172.853 24.3146 173.461 24.3146ZM185.456 26.2107C184.473 26.2107 183.747 25.9844 183.279 25.5318C182.811 25.0793 182.577 24.3614 182.577 23.3782V14.7873H181.055V13.57C181.18 13.5232 181.407 13.4452 181.734 13.3359C182.062 13.2111 182.312 13.1097 182.483 13.0316C182.749 12.8288 182.975 12.4776 183.162 11.9782C183.303 11.6505 183.56 10.839 183.935 9.54375H185.807L185.901 12.9848H189.482V14.7873H185.924V21.3651C185.924 22.239 185.948 22.8554 185.995 23.2144C186.041 23.5733 186.143 23.8074 186.299 23.9166C186.455 24.0103 186.728 24.0571 187.118 24.0571C187.508 24.0571 187.914 24.0181 188.335 23.94C188.757 23.8464 189.108 23.7372 189.389 23.6123L189.834 24.9232C189.397 25.2509 188.757 25.5474 187.914 25.8127C187.071 26.078 186.252 26.2107 185.456 26.2107ZM201.636 26.2341C201.121 26.2341 200.747 26.1248 200.513 25.9064C200.279 25.6879 200.162 25.3602 200.162 24.9232V24.2912C199.74 24.8062 199.147 25.2665 198.383 25.6723C197.618 26.0624 196.853 26.2575 196.088 26.2575C194.59 26.2575 193.521 25.8752 192.882 25.1105C192.242 24.3302 191.922 23.0505 191.922 21.2715V14.6702L190.751 14.3425V13.0082L194.731 12.7039H194.754L195.222 13.0316V21.2715C195.222 22.4107 195.363 23.2066 195.644 23.6591C195.925 24.1117 196.447 24.338 197.212 24.338C198.133 24.338 198.991 23.9791 199.787 23.2612V14.6702L198.219 14.3191V13.0082L202.456 12.7039H202.502L203.064 13.0316V24.5487H204.375L204.352 25.883C204.289 25.8986 204.001 25.961 203.486 26.0702C202.971 26.1795 202.354 26.2341 201.636 26.2341ZM206.029 24.6189L207.574 24.4316V15.2086L206.076 14.7873V13.1721L209.705 12.6805H209.775L210.36 13.1487V13.6637L210.29 15.5598H210.36C210.469 15.2476 210.727 14.8653 211.133 14.4127C211.538 13.9446 212.045 13.5388 212.654 13.1955C213.278 12.8366 213.949 12.6571 214.667 12.6571C215.011 12.6571 215.307 12.7039 215.557 12.7975V16.3088C215.089 15.9811 214.519 15.8173 213.848 15.8173C212.709 15.8173 211.718 16.1216 210.875 16.7302V24.4082L213.59 24.6189V26H206.029V24.6189ZM222.947 26.2575C220.887 26.2575 219.35 25.6567 218.335 24.455C217.337 23.2378 216.837 21.5836 216.837 19.4924C216.837 18.0879 217.095 16.8706 217.61 15.8407C218.14 14.8107 218.882 14.0226 219.834 13.4764C220.786 12.9302 221.886 12.6571 223.134 12.6571C224.695 12.6571 225.896 13.0706 226.739 13.8977C227.582 14.7092 228.019 15.8719 228.05 17.3856C228.05 18.4156 227.988 19.1803 227.863 19.6797H220.255C220.317 21.0998 220.653 22.2078 221.262 23.0037C221.87 23.784 222.736 24.1741 223.86 24.1741C224.468 24.1741 225.093 24.0727 225.733 23.8698C226.388 23.6669 226.903 23.4251 227.278 23.1441L227.863 24.4316C227.441 24.8842 226.755 25.3055 225.803 25.6957C224.866 26.0702 223.914 26.2575 222.947 26.2575ZM224.773 18.2752C224.804 17.8382 224.82 17.5027 224.82 17.2686C224.82 15.193 224.125 14.1552 222.736 14.1552C221.972 14.1552 221.379 14.4596 220.957 15.0682C220.536 15.6768 220.302 16.7458 220.255 18.2752H224.773Z" fill="white"/>
<path d="M24.293 10.1341L16.2084 6.44734C16.1966 6.44193 16.1868 6.43352 16.1751 6.42799L10.7795 12.2241C10.6562 12.3567 10.5853 12.5305 10.5812 12.712L10.2185 28.5059L15.4989 16.9266C15.2677 16.7038 15.0769 16.4333 14.9572 16.113C14.5285 14.9655 15.1132 13.6833 16.2607 13.2546C17.4082 12.8259 18.6903 13.4106 19.119 14.5581C19.5477 15.7056 18.9631 16.9878 17.8156 17.4165C17.4953 17.5361 17.1659 17.5694 16.8462 17.541L11.5658 29.1203L23.2529 18.4906C23.3871 18.3686 23.472 18.201 23.4912 18.021L24.3296 10.1467C24.3177 10.1415 24.3049 10.1396 24.293 10.1341Z" fill="white"/>
<path fill-rule="evenodd" clip-rule="evenodd" d="M16.0062 0L30.726 6.62819L26.2602 9.25361L16.0062 4.78749L4.36534 10.0293V26.1639L16.0062 31.9674L26.2602 26.9982L30.8037 29.468L16.0062 36.8451L0 28.8654V7.20749L16.0062 0Z" fill="white"/>
</svg>
